<svg version="1" xmlns="http://www.w3.org/2000/svg" width="1440" height="1440" viewBox="0 0 1080.000000 1080.000000"><path d="M0 322.5V645l6-3.1c3.3-1.7 6.3-3.6 6.6-4.1.4-.6 2.1-1.6 3.8-2.4 3.6-1.7 6.5-3.4 8.4-5.1.7-.7 3.1-1.7 5.2-2.3 2.2-.6 4.4-1.9 5-3 .6-1.1 2.8-2.4 5-3 2.1-.6 4.2-1.4 4.5-1.9.2-.5 3.1-2.2 6.2-3.9 10.4-5.4 12.8-6.7 13.3-7.2.9-.9 4.4-2.9 8.8-5.1 2.3-1.2 4.5-2.5 4.8-3 .3-.5 1.3-.9 2.4-.9 1 0 2-.7 2.4-1.5.3-.8.9-1.4 1.3-1.4 1.5.4 8.4-3.2 8.9-4.5.3-.8 1.9-1.6 3.5-2 1.7-.3 4.2-1.5 5.6-2.6 1.4-1.1 3-2 3.5-2 .6 0 2.4-1 4.1-2.3 3.9-2.8 6.1-4 11.4-6.6 2.3-1.2 4.5-2.5 4.8-3.1.3-.5 1.5-1 2.6-1 1 0 1.9-.5 1.9-1 0-.6.9-1 1.9-1 1 0 2.1-.7 2.5-1.5.3-.8 1.2-1.5 1.9-1.5.8 0 2-.7 2.7-1.5.7-.8 2-1.5 3-1.5s2.3-.7 3-1.5c.7-.9 1.9-1.4 2.6-1.1.7.3 1.8-.2 2.4-1 .7-.8 1.6-1.4 2.1-1.4.4 0 2.7-1.3 5.1-2.9 2.4-1.5 7.5-4.5 11.3-6.6 3.9-2 7.2-4 7.5-4.4.5-.6 7.2-4.4 12.5-7 1.7-.8 3.7-1.8 4.5-2.3.8-.4 2.6-1.4 4-2 1.4-.7 2.8-1.8 3.2-2.4.4-.6 4.1-2.6 8.3-4.4 4.1-1.8 7.5-3.6 7.5-4 0-.4 1.3-1 2.9-1.3 1.6-.3 3.6-1.3 4.4-2.2.9-.9 3.2-2.2 5.1-3 1.9-.8 3.7-1.9 4-2.4.4-.5 2-1.2 3.7-1.6 1.7-.4 2.8-.9 2.5-1.3-.7-.6.8-1.5 12.4-7.2 4.7-2.3 9.3-4.9 10.3-5.8 1-.9 2.5-1.7 3.4-1.8.8-.2 4.1-1.9 7.3-3.8 3.2-2 6.3-3.6 6.9-3.6.6 0 1.1-.5 1.1-1 0-.6 1-1 2.3-1 1.3 0 3.2-.8 4.3-1.8 1.1-1 4.1-2.7 6.7-3.7 2.6-1 4.7-2.2 4.7-2.6 0-.5.6-.9 1.4-.9.7 0 1.9-.7 2.6-1.5.7-.8 1.6-1.3 2-1 .4.3 1.3-.2 2-1s1.8-1.5 2.6-1.5c.7 0 1.9-.6 2.6-1.4.8-.7 2.5-1.7 3.8-2.1 1.4-.4 4.6-2 7.3-3.6 2.6-1.6 5.2-2.9 5.7-2.9s2.8-1.3 5.2-2.9c2.4-1.5 6-3.4 8.2-4.1 2.1-.7 5.9-2.6 8.3-4.4 5.9-4.1 10.4-6.5 12.5-6.6 1 0 2.2-.8 2.7-1.8.6-1.1 3.5-2.7 6.5-3.6 3.1-1 7.2-3.1 9.3-4.8 2.1-1.6 5-3.2 6.5-3.5 1.5-.3 3.3-1.2 3.9-1.9.6-.8 1.7-1.4 2.4-1.4s2.4-.9 3.8-2 3.1-2 3.9-2c.7 0 4.9-2 9.2-4.5 4.4-2.5 8.8-4.5 9.8-4.5s3.1-1.1 4.6-2.5c1.5-1.4 3.5-2.5 4.5-2.5 2.3 0 7.4-2.6 7.9-4 .2-.6 1.2-1.2 2.3-1.4 4-.8 11.6-4.6 11.1-5.5-.4-.5.8-1.3 2.6-1.6 1.8-.4 3.9-1.1 4.8-1.5.8-.5 3.2-1.6 5.2-2.4 2-.9 4-2.1 4.4-2.7.6-1 10.9-6.2 12.6-6.3 1.4-.2 2.1-1.6.7-1.7-.8 0 .6-.6 3.1-1.4 7.6-2.2 11.2-3.9 14.4-6.8 1.7-1.5 3.4-2.7 3.9-2.7 1.9 0 10.6-4.3 10.2-5-.3-.5 1.2-1.1 3.4-1.5 2.7-.4 4.1-1.2 4.4-2.6.3-1 1.4-1.9 2.5-1.9 1.8 0 6.8-2.4 14.2-6.8 4.8-2.9 12-6.2 13.5-6.2.7 0 2.9-1.1 5-2.6 2-1.4 5.7-3.4 8.1-4.6 2.4-1.1 4.4-2.4 4.4-2.9s.5-.9 1-.9c1.6 0 10.2-4.2 12.9-6.2 1.3-1 3.2-1.8 4.1-1.8 1 0 3.9-1.2 6.6-2.7 6.9-3.9 11.6-6.4 18.2-9.6 3.1-1.6 6.8-3.5 8.2-4.3 1.4-.7 5-2.5 8-3.8 3-1.4 6.6-3.2 8-4 4.4-2.6 15.3-7.6 18-8.3 1.4-.3 3.2-1.1 4-1.8.8-.7 3.3-2.2 5.5-3.3 10.3-5.1 14.5-7.4 15.1-8.3.3-.5 1.2-.9 2-.9 2 0 16.4-7.2 16.4-8.2 0-.4.8-.8 1.7-.8 2 0 8.6-2.2 9.3-3.2.3-.3 2.9-1.8 5.7-3.3 2.9-1.4 5.5-3 5.8-3.5.4-.6 1-.8 1.5-.5.4.3 3.9-1.3 7.6-3.5 3.8-2.2 7.3-4 7.9-4 .5 0 4.3-1.6 8.3-3.6 4.1-1.9 8.4-3.9 9.5-4.5 1.2-.5 3.1-1.5 4.2-2.1 5.4-3.5 9.6-5.8 10.4-5.8.6 0 3.3-1.4 6.1-3 2.8-1.7 5.5-2.8 6-2.5.4.3 1.3-.2 2-1s2.1-1.5 3.1-1.5c1.1 0 1.9-.4 1.9-.9s2.2-1.7 4.9-2.6c2.7-.9 5.2-2.3 5.5-3.1.3-.7 1.6-1.4 2.9-1.4 1.4 0 3-.7 3.7-1.5.7-.8 1.8-1.5 2.5-1.5s4.1-1.4 7.6-3.1c3.5-1.7 8-3.8 9.9-4.6 1.9-.8 4.2-1.9 5-2.4.8-.5 2.6-1.4 4-1.9 4.4-1.8 10.4-5.2 12.6-7.2 1.1-1 2.3-1.6 2.5-1.3 1 1 7.9-1.7 7.9-3 0-.8.8-1.5 1.8-1.5.9 0 5.3-1.8 9.7-4 4.4-2.2 8.4-4 8.9-4s1.7-.6 2.5-1.3c.9-.8 3.9-2.2 6.6-3.2 2.8-1 6.4-2.8 8-4.1 3.1-2.4 7.4-4.3 11.2-5 1.2-.2 4.2-1.8 6.7-3.4 2.4-1.7 5.3-3 6.5-3 1.2 0 2.1-.6 2.1-1.5 0-.8.7-1.5 1.5-1.5.9 0 6.7-2.5 13-5.5 6.2-3 11.7-5.5 12.2-5.5.4 0 3.1-1.2 5.8-2.5 2.8-1.4 5.6-2.5 6.3-2.5.6 0 1.2-.4 1.2-.9s1.5-1.4 3.3-2c1.8-.6 8.1-3.6 14.2-6.6 6-3 11.7-5.5 12.7-5.5s1.8-.5 1.8-1c0-.6.7-1 1.5-1 .9 0 1.8-.6 2.1-1.4.3-.8 1.3-1.2 2.2-.9 1 .2 2.8-.5 4.1-1.6 1.3-1.2 3-2.1 3.8-2.1.8 0 3.1-.9 5.1-2 6.6-3.5 30.6-15 31.3-15 .4 0 3.5-1.6 6.9-3.5 3.4-1.9 6.9-3.5 7.7-3.5.9 0 4.1-1.6 7.3-3.5s6.1-3.5 6.6-3.5 2.8-.8 5.1-1.8l4.3-1.7V0H0v322.5zM1073.5 245.5c-2.7.8-7.3 1.7-10.2 2.1-3.9.5-5 1-4.6 2 .7 1.8-2.4 5.4-4.6 5.4-.9 0-2.5.7-3.5 1.5-1.1.8-3 1.5-4.1 1.5-1.2 0-3 .9-4 2s-2.5 2-3.4 2c-.9 0-3.6 1.4-6.1 3-2.5 1.6-5.1 3-5.7 3-.7 0-2.1.8-3.1 1.7-2.3 2.2-4.4 3.5-9.9 6.4-2.4 1.3-4.3 2.6-4.3 3 0 .4-2.6 1.3-5.7 1.9-3.2.6-7.4 2.2-9.3 3.4-4.8 3.1-9.5 5.2-16 7.1-3 .9-6.6 2.2-8 2.8-1.4.6-2.9.9-3.4.8-1.9-.4-6.5 1.1-6.3 2.1.1.6-1.4 1.9-3.3 3s-3.6 2.4-3.8 2.9c-.2.5-1.2.9-2.2.9-1 0-2.1.4-2.4.8-.3.4-3 2.1-6 3.6-3.1 1.6-5.6 3.2-5.6 3.7 0 .8-2.3 2.2-10.9 6.8-1.4.8-5.1 3-8.1 5-6.9 4.5-12 7-14.2 7.1-.9 0-2.8 1-4.1 2.2-4.7 4.5-8.2 6.8-10.1 6.8-1.1 0-2.9.9-4 1.9-1.2 1.1-5.5 3.7-9.6 5.8-11.5 6-19.4 10.5-20 11.2-.3.3-1.8 1.3-3.5 2.1-3.3 1.7-4.3 5.7-1.2 5.2.9-.2 1.7.2 1.7.8 0 2.1 3.7.9 5-1.6 2.1-3.9 6.3-5.5 13.3-5.3 4 .1 8.9-.6 13.7-2.1 4.1-1.2 9-2.4 10.8-2.7 4-.6 10.2.5 10.2 1.8 0 1.1-6.3 7.3-10.4 10.2-2.7 1.8-3.5 4.7-1.5 4.7.7 0 0 .9-1.4 2s-2.9 2-3.4 2c-1.8 0-8.8 7.6-8.8 9.5 0 1.4-.8 2.1-2.7 2.3-3.5.4-3.6 1.5-.3 3 4.3 2 7.2 1.4 9.4-1.7 1.2-1.6 2.1-3.4 2.1-4 0-.6.9-1.1 2-1.1s2.7-1.1 3.5-2.4c.9-1.3 4.3-3.7 7.7-5.2 11.8-5.6 14.3-7.1 14.8-9.5.4-1.7 2.5-3.4 7-5.7 3.5-1.8 7.1-3.9 8-4.7 2-1.8 8.3-3.4 20.1-5 9.6-1.3 12.7-2.3 16.1-5.5 3.6-3.3 15.8-5.4 17.3-3 .3.5 1.7 1 3.1 1 1.5 0 2.4.6 2.4 1.5 0 .8-.6 1.5-1.3 1.5-.7 0-3.3 1-5.8 2.2l-4.4 2.2 8 .7c11.5 1 13.5 1.9 13.5 6.7 0 3.5-.3 4-4.2 5.9-2.4 1.2-7 2.5-10.3 2.9-6.9.8-10.3 1.9-12.7 4.1-2.9 2.6-.4 4.3 6.6 4.4h6.1l-6 2.9c-3.3 1.5-6.7 3.7-7.7 4.8-2.1 2.6-11.9 5.5-18.6 5.5-4.2 0-4.9.2-3.6 1.2 1.4.9.4 1.5-5.7 3.3-4.1 1.2-10.2 2.7-13.6 3.3-5 .9-6.2 1.5-6.5 3.1-.2 1.4-1.9 2.6-5.3 3.9-2.7 1-6.6 3.2-8.5 4.9l-3.5 3.1 6.5-.6c6.1-.6 6.6-.5 8.3 1.9 1.5 2.1 1.5 2.9.5 4.6-1.5 2.4-2.8 2.8-12.4 3.8-6.3.7-7.3.6-8.3-1-1.3-2.1-1.4-4.5-.2-5 .4-.2 1-2.4 1.3-5.1.5-4.7.5-4.7-2.4-4.7-2.3 0-3.1-.6-4-3.1l-1-3-7.7.1c-14.1.3-19.5-.1-21.8-1.6-1.3-.8-2.3-1.8-2.3-2.3 0-.5 2.3-1.8 5-2.9 5.1-2.1 6.2-3.5 3.5-4.6-.8-.3-1.5-1.2-1.5-1.9 0-.9-1.5-1.7-3.7-2.1-5.2-.8-6.3-.8-6.3.4 0 .5 1.5 1 3.3 1 2.8 0 7.8 1.9 5.2 2-.5 0-.3.5.5 1 1.3.9 1.3 1.1 0 2-.8.5-3.1 1.2-5 1.5-5.1.8-8.5 2.8-8.8 5.2-.3 2.1-2.7 3.3-7.1 3.3-1.5 0-2.1-.5-1.8-1.3.7-1.9-8.2-.3-12.8 2.3-1.9 1.1-4.5 2.1-5.7 2.2-1.3.2-3.2.9-4.3 1.6-1.7 1-1.8 1.3-.5 2.2 1 .6 1.1 1 .3 1-.7 0-1.3 1-1.3 2.3 0 2.9-1.8 4.7-4.6 4.7-1.2 0-2.5.7-2.8 1.6-.9 2.2-.8 2.4 1 2.4 1.4 0 1.4.3.4 1.5-.7.8-2.2 1.5-3.4 1.5-1.2 0-4.3 1.3-6.9 3-2.6 1.6-5.4 3-6.2 3-.8 0-1.5.6-1.5 1.3 0 1.4-.2 1.4 14.5-.8 2.8-.4 6.3-1.4 7.8-2.2 2.8-1.4 9.2-.9 10.3.8.3.5 1.2.9 2 .9 2.4 0 16.4-7 16.4-8.2 0-.7 1.2-.8 3.8-.3 2 .4 7.5 1.1 12.2 1.4 8.4.6 11.5 2.3 5.3 2.9-1.8.2-3.3.8-3.3 1.4 0 .7 2.5.8 7.5.3 7.3-.7 7.5-.6 8.4 1.8.6 1.4 2 2.8 3.3 3.2 4.5 1.3 12.8 4.9 12.8 5.5 0 1.6-6.2 6-9.8 7.1-6.1 1.8-10.2.5-13.5-4.1-1.6-2.2-3.5-4-4.4-4-1.2 0-7.5 2.9-10.2 4.7-.3.2-.6 2.1-.7 4.3-.1 2.2-.9 5.1-1.8 6.5-1.8 2.8-2.1 4.5-.6 4.5 2.3 0 .7 1.8-3.5 3.8-5.7 2.8-6.3 2.7-11.6-.3-4.8-2.7-8.7-3.2-9.4-1.3-.2.7-.9 3.2-1.5 5.5-1 3.8-1.5 4.3-5.3 5.4-2.3.6-4.4 1.4-4.7 1.8-.9 1.4-7.4 3.2-7.9 2.2-.3-.5-1.3-1-2.1-1.2-1.9-.4-10.9 2.1-11.6 3.2-.9 1.6-2.4 1-2.4-.9 0-2.4 2.7-4.8 6.3-5.7 6.4-1.6 2.1-4.2-5.4-3.2-2.6.3-5.1 0-7.2-1.1-4.1-2-9.7-1.9-11.3.3-1.1 1.5-1.9 1.5-6.6.6-11.4-2.3-39.8 1.7-39.8 5.6 0 .7-.6 1.3-1.3 1.3-3 0-7.6 3.1-7 4.7.5 1.2.1 1.4-1.4.9-2.3-.7-7.5 1.2-6.7 2.5.6 1-5 1.2-8.3.3-1.2-.3-2.6-1.9-3.2-3.5-.6-1.7-1.7-2.9-2.7-2.9-1.7 0-8.4 3.7-9.5 5.3-.3.5-.9-.2-1.2-1.4-.6-2.2-.8-2.1-5.2 2.4-2.6 2.6-4.5 5.2-4.2 5.9.2.8-2.4 2.7-6.7 4.8-4.9 2.5-7 4.1-6.8 5.2.2 1.2-.3 1.5-1.8 1.1-1.3-.4-2.2.1-2.6 1.3-.8 2.2-3.4 4.9-5.3 5.5-1.1.4-1 .8.3 2.1 2.2 2.2 2.1 2.3-2.1 4.9-11.6 7.2-9.3 8.1 6.3 2.6 6.7-2.3 19.6-4.4 23.9-3.8 3.3.5 3.7 2.5.7 3.5-1.5.5-3 1.4-3.4 2.1-.4.6-2.6 1.8-4.8 2.5-2.4.8-5.4 2.8-7 4.8-2.8 3.4-3 3.5-8.1 2.8-2.8-.4-7-1.4-9.3-2.1-2.3-.8-6-1.5-8.4-1.5-5.4 0-13.6 3.4-15.7 6.6-.8 1.3-2 2.4-2.6 2.4-.5 0-2 1.1-3.3 2.5-1.3 1.4-2.6 2.5-3 2.5-.4 0-1.9 1.1-3.4 2.5s-4.6 3.2-6.9 4.1c-4.8 1.8-7 5.1-2.8 4 4.7-1.2 2.7 4.6-2.6 7.4-1 .6-1.9 1.9-1.9 3s-.9 2-2.2 2.3c-1.3.2.5.5 4 .6 4.6.1 6.1-.2 5.6-1.1-.4-.7-.3-.8.5-.4.6.4.9 1.1.6 1.6-.3.5.2 1.3 1.1 1.8 1.5.8 1.2 1.1-1.4 1.7-2.9.6-3.7 1.5-3.3 3.7 0 .5-.7.8-1.8.8-1 0-3.3.5-5 1.1-2.4.9-2.9 1.4-1.9 2 2.1 1.4 3.6 1 4-.9.3-1.4.7-1.3 2.8 1 1.3 1.6 3.3 2.8 4.4 2.8 1.2 0 2.7.4 3.5.9.9.6.3 1-2 1.5-4.7.9-4.8.9-10.1.1l-4.8-.8v3c0 2.3-.6 3.2-2.2 3.7-2.2.6-2.2.7-.5 1.7 1 .6 3.4.8 5.3.5 4-.8 4.7 1 1 2.4-2.9 1.1-4.4 3.2-2.8 3.8.7.2 1.2 1 1.2 1.7 0 2.1-4.8 4.6-9.5 4.9-2.8.1-5.2.9-6.4 2.2-3.6 3.5-5 4.4-6.8 4.4-1.8.1-5.3 2.2-5.3 3.3 0 .3.8.8 1.8 1.1.9.3-.4.3-3 0-2.5-.3-4.9-.1-5.2.5-.4.5-3.7.8-7.8.5-7.8-.4-10.6-1.4-4-1.4 4.5 0 4.9-.5 2.7-3.4-1.1-1.5-2.1-1.7-4.9-1.2-2.2.4-3.6 1.3-3.6 2.1s-.7 1.5-1.5 1.5c-.9 0-2 1.2-2.6 2.7-.5 1.6-1.8 3.4-2.7 4.1-1.4 1-1.4 1.4-.3 2.1.9.6 1 1.1.2 1.5-.6.4-1.1.4-1.1-.1 0-.4-.5 0-1.1.9-1.3 2.4-2.9 2.3-2.9-.2 0-2.2-1.5-2.7-2.3-.7-1 2.5.5 6.5 2.5 7.1 3.1.8 8.1-.5 9.5-2.5 1.4-1.9 4.8-1.5 5.7.7.3.9-.8 1.7-3.7 2.5-2.3.7-4.6 1.6-5.1 2.1-2.8 2.4-10.6-1-10.6-4.5 0-.9-.5-2.8-1.1-4.4l-1.1-2.8-1.4 3.4c-1.2 2.8-1.6 3.1-2.9 2.1-1-.9-1.5-.9-1.5-.1 0 .6-.7 1.1-1.5 1.1s-2.4.6-3.5 1.2c-1.7 1.1-2.2 1-2.9-.1-.8-1.3-5.2-.7-5 .7.4 2.2-.4 3.4-2.6 4.2-2.5 1-3.6 5-1.4 5 .6 0 .9.7.6 1.4-.4.9-.1 1.3.6 1.1.7-.3 1.9 0 2.7.5 1.3.8 1.2 1.2-.8 2.5-1.2.9-2 2.1-1.7 2.6.9 1.3-.9 1.1-2.3-.3-.9-.9-1.5-.8-2.5.7-.8 1-1.9 1.5-2.5 1.1-.7-.4-1.2-.1-1.2.8 0 2.1-5.9 2.1-11.5.1-4.9-1.8-4.5-1.8-4.5-.2 0 2-6 4-11.5 3.9-2.7 0-4.2.2-3.2.4 3 .9 1.9 2-3.5 3.4-3.8.9-5.3 1-5.6.1-.5-1.4-3.2-1.5-3.2-.1 0 .5.6 1 1.3 1 .6 0-.3 1.4-2 3-2 1.8-3.9 2.7-4.8 2.4-1.9-.8-1.1-1.9 1.3-1.9.9 0 1.7-.7 1.7-1.5 0-.9-.8-1.4-2-1.3-13.1 1.4-14.7 1.4-14.1.4.4-.6 1.5-1.1 2.5-1.1s3.3-.5 5.1-1.2c3-1 3.2-1.2 1.4-1.9-1.5-.6-1.6-.8-.3-.8.9-.1 1.9-.7 2.2-1.5.4-1 1.9-1.2 5.6-.8 4.2.4 5.1.2 5.1-1.2 0-.9.7-1.6 1.5-1.6 2.8 0 6.5-2.4 6.5-4.2 0-1.4-.8-1.8-4-1.8-3.6 0-4-.3-4-2.5 0-1.4.5-2.5 1.2-2.5.6 0 .9-.2.7-.5-.3-.2-1.5-.2-2.7.2-1.8.4-2.2 1.3-2.2 4.4 0 2.2-.4 3.9-1 3.9-.5 0-1-1.8-1-4s.5-4 1-4c.6 0 .8-1.1.4-2.6-.5-2-.2-2.6 1.4-3.1 1.1-.3 2.3-1.1 2.6-1.8.3-1-.4-1.1-3.2-.4-2 .5-5 1.2-6.6 1.6-1.6.3-4.9 2.6-7.2 5-4.4 4.4-9.6 7.3-13.4 7.3-1.1 0-2 .5-2 1.1 0 .6-1 .8-2.2.5-1.3-.3-1.7-.3-1 0 2.6 1.2 1 2.3-3.2 2.2-4 0-4.6-.4-5.5-2.9-.5-1.6-1.7-2.9-2.5-2.9-.9 0-1.6-.5-1.6-1 0-.6-.7-1-1.5-1s-1.5.4-1.5 1c0 .5.5 1 1 1 1.8 0 1.1 1.8-1 2.5-1.3.4-2 1.5-2 3.1 0 2.2-1 2.9-3.4 2.5-.5-.1-1.6.1-2.5.5-1.3.5-1.1.8.9 1.6l2.5 1-3 .9c-3.3 1-7.5.4-7.5-1.1 0-.6.5-1 1-1 .6 0 1 .4 1 1 0 .5.8 1 1.8 1 1.6-.1 1.6-.1-.1-1.4-.9-.7-1.7-1.8-1.7-2.5 0-2-1.4-1.2-3.5 1.9-1.1 1.6-2.3 3-2.7 3-.3 0-.4.9-.1 2 .3 1.1 0 2-.6 2s-1.1.4-1.1 1c0 1.3 4.3 1.3 5.7-.1.8-.8 1.9-.6 4.1.5 1.7.9 4.3 1.6 5.7 1.6 1.5 0 2.4.4 2 1-.3.6-1.7 1-3.1 1-1.4 0-3.3.4-4.3.9-2.6 1.4-9.9.2-10.5-1.8-.3-.9-.4.8-.2 3.6.3 4.8.1 5.3-1.8 5.4-2.1 0-2 .1.2 1.1 2.3 1.2 3 3.8 1 3.8-2.3 0-3.9 1.6-3.2 3.3.9 2.5 5.8 2.2 7.7-.6 1.4-1.9 1.8-2 2.6-.7 1.5 2.1 1.4 6.7-.1 7.3-.7.3-.3.6.9.6 2.8.1 3.7 1.5 1.8 3.1-1.8 1.5-7.4.4-8.2-1.6-.3-.9-2-1.4-4.4-1.4H384v-6c0-3.6-.4-6-1.1-6-.6 0-.9.6-.6 1.2.2.7-1.1 2.8-2.9 4.6-1.9 1.8-3.4 3.7-3.4 4.2 0 .6-.9 1-2 1s-2.3.7-2.6 1.5c-.3.8-2.2 2.4-4.2 3.6-2.3 1.3-3.2 2.4-2.4 2.7 1.6.5-4.9 5.2-7.2 5.2-2.9 0-4.6 1.3-6.2 4.6-1 2.1-2.4 3.4-3.5 3.4-2.5 0-2.4-2 .1-2.7 2.2-.6 2.6-1.9.8-2.6-.7-.2 1.3-1.4 4.5-2.6 3.3-1.2 6.6-2.9 7.5-3.8 1.5-1.5 1.3-1.6-2.8-1-2.5.4-5.9 1-7.7 1.3-4.3.8-6.3-1.3-6.3-6.4 0-3.5.3-3.9 1.9-3.5 1.2.3 1.7 1.1 1.4 1.9-.4 1 .3 1.4 2.5 1.4 1.7 0 3.2-.6 3.6-1.5.7-2 4.5-1.9 5.3 0 .5 1.4.8 1.4 2.9 0 1.3-.8 3-1.5 3.9-1.5 3.1 0 7.5-3 7.5-5.1 0-1.1 1.6-3.5 3.5-5.2 2.7-2.3 3.2-3.3 2.4-4.4-.6-.7-2-1.3-3.1-1.3-1.7 0-1.8-.2-.4-1.5 1.9-2 7-1 6.2 1.2-.4 1 0 1.3 1.2 1.1 1.9-.3 2.7-4.5 1.8-8.4-.8-2.9-2.6-3.2-2.6-.5 0 2-.6 2.2-9.5 3.7-2.2.4-5.2 1.5-6.7 2.5-1.4 1.1-3.4 1.9-4.4 1.9-2.9 0-.7 1.3 3.3 1.9l3.6.6-4.1 2c-4.2 2-5.2 4.1-3 6.3.9.9.9 1.5 0 2.4-.9.9-1.2.7-1.2-.9 0-1.8-.7-2.2-4-2.5-4.8-.4-5.6-2-1.4-2.9 2.9-.7 2.2-1-2.8-1.3-3.3-.2-3.9-.7-4.1-3.4-.1-2-3.7-4-3.7-2.1 0 .5.6.9 1.3.9.6.1-1.5 1.5-4.8 3.2-3.3 1.7-6.2 3.4-6.5 3.8-.3.4-1.8 1.4-3.5 2.3-2.5 1.3-2.7 1.7-1.2 2.2 2.7 1.1 2 3.2-1.4 4.4-4.3 1.5-4.6 1.4-5.2-.9-.9-3.5-10.7-2.3-10.7 1.3 0 .5 1.1.6 2.4.3 1.4-.3 2.7-.2 3 .3.3.5-.6 1.2-2.1 1.6-1.5.3-2.9.2-3.3-.5-1.2-2-4.2.1-3.6 2.5.7 2.6-3.3 7.5-6 7.5-1 0-3.1 1.2-4.7 2.7-2 1.9-3.1 2.4-3.4 1.5-.3-.6-1.8-1.2-3.4-1.2-1.6 0-2.9-.2-2.9-.5 0-1.5 5.6-5.5 8.5-6.1 1.9-.3 3.2-1.1 2.9-1.6-.3-.5-1.7-.7-3-.4-2.4.6-3.3-.7-1.4-1.9 1.2-.8 1.3-5.5.1-5.5-.5 0-1.1.8-1.5 1.7-1.5 4.5-4.2 7.4-6.3 6.6-.7-.3-1.3 0-1.3.6s.5 1.1 1 1.1c.6 0 1 .9 1 2s-.4 2-1 2c-2.1 0-.8 1.9 2 2.9 3.9 1.3 3.8 1.9-.5 3.7-1.9.8-3.5 1.9-3.5 2.4 0 .6-.9 1-1.9 1-1.1 0-2.3.5-2.6 1-.3.6-2.1 1-4 1-2.5 0-3.5-.5-4-2-.7-2.2-2-2.6-3-1-.3.5.1 1 .9 1 2.5 0 1.8 3-.9 4-1.4.5-2.5 1.5-2.5 2.1 0 .7-.8 1.8-1.7 2.6-1.7 1.3-1.7 1.4.4 2.9 2.6 1.8 3.1 4.4.9 4.4-.8 0-2 .2-2.8.3-.7.2-1 .2-.5 0 .4-.3.7-1.1.7-1.9 0-1-1.2-1.4-4-1.4-2.9 0-4 .4-4 1.5 0 .9-.9 1.5-2.5 1.5-2.2 0-2.5-.4-2.5-3.8 0-2.1-.3-4.1-.6-4.4-1.4-1.4-4.3.7-5.9 4.3-1.8 3.8-4.5 5.3-4.5 2.4 0-1.1-1.1-1.5-4-1.5-2.2 0-4 .4-4 .9 0 .6-1.7 1.1-3.7 1.3-2.2.2-3.8.9-4 1.8-.4 1.2-.2 1.2.5.2.6-.9 2.6-1.2 6.3-.9 4.2.3 4.9.5 3.1 1.1-1.2.5-2.2 1.2-2.2 1.7s-.7.9-1.6.9c-1.8 0-8.4 6.5-8.4 8.3 0 .7 1.1 2.1 2.5 3.1 6.3 4.7-.6 9.2-12 7.7-4.7-.6-9.5.5-9.5 2.1 0 .5-.7.8-1.5.8s-1.5.4-1.5.9-1.8 1.2-4 1.6c-2.2.4-4 1.2-4 1.9 0 1.4-4.7 4.2-5.6 3.4-.7-.8 3.2-4.8 4.6-4.8.5 0 1-1.1 1-2.5 0-2.3.3-2.5 5.1-2.5 2.7 0 4.8-.3 4.5-.8-.8-1.3-18.6 1-18.6 2.5 0 .7-.7 1.3-1.5 1.3s-1.5-.7-1.5-1.5-.7-1.5-1.5-1.5c-1.9 0-1.9 1.9 0 4.4 1.9 2.5 1.9 3.6 0 3.6-.8 0-1.5-.7-1.5-1.6 0-1.1-.5-1.4-1.6-1-.9.3-2.9.6-4.5.6-2.6 0-2.9.4-2.9 3 0 3.3-1.1 3.8-3 1.5-.8-1-3.1-1.5-7-1.5-5.4 0-6.1.3-8.4 3.2-1.5 2-2.1 3.5-1.5 3.9.6.3-.1.9-1.5 1.3-1.4.3-2.6 1.1-2.6 1.6 0 .6-1.8 1-4 1-2.8 0-4 .4-4 1.4 0 1.1.9 1.3 3.8.9 2-.3 3.9-1 4-1.5.2-.4 2.1-.8 4.2-.8 3.7 0 6.4-2.5 4.1-3.9-.6-.4-.6-1.2-.2-2 1-1.6 14.8-1.2 15.9.5.4.6 1.4 1.4 2.2 1.7 1.2.4 1.1.6-.2.6-1 .1-1.8.4-1.8.8 0 1.2-7.1 4.1-11.7 4.8-2.4.4-4.3 1.1-4.3 1.5 0 .5-1.5.4-3.2-.1-4.3-1.2-4.9-1.1-4.6.3.2.6-1.4 2.1-3.4 3.2-2.1 1.2-3.8 2.7-3.8 3.3 0 .7-.7 1.3-1.6 1.3-.9 0-2.4 1-3.3 2.1-1.2 1.5-3.2 2.3-6.9 2.7-5.1.4-7.2 2.6-3.4 3.5.9.2-1.7.2-5.8.1-4.1-.2-6.7-.1-5.7.2 2.1.7 2.3 2.4.2 2.4-.8 0-1.5.4-1.5 1 0 .5.7 1 1.5 1s1.5.5 1.5 1c0 1.6-12.2.4-13.5-1.3-1.1-1.5-.9-1.5-18.7 1.1-3.8.6-8.2 1.8-9.9 2.6-3.9 1.9-5.6 2-6.2.3-.4-.9-.8-.9-1.5.2-.9 1.2-1.8 1.2-6.4-.2-2.9-.9-6.6-1.5-8.3-1.3-1.6.3-4.1.5-5.5.5-1.9.1-2.2.3-1 1 .8.6 2.7.7 4.2.4 2.3-.5 2.8-.2 2.8 1.5 0 2.1-3.9 5.2-6.5 5.2-.8 0-1.5.4-1.5.9 0 1.8-6.2 7.1-8.2 7.1-1.1 0-2.9 1.1-4 2.5-2.5 3.2-3.8 3.2-3.8 0 0-1.4-.5-2.5-1.1-2.5-2.5 0 .4-1.8 4.6-2.9 2.5-.6 4.5-1.3 4.5-1.6 0-.2-1.6-1.2-3.5-2.1-3.2-1.5-3.7-1.5-4.8-.2-.7.8-2.7 2.1-4.4 2.8-1.8.7-3.3 1.6-3.3 2.1 0 .4-1 .9-2.3 1.1-1.3.2-2.3 1.1-2.5 2.3-.1 1.1-1.6 2.8-3.2 3.7-3.1 1.7-3.6 3.3-2.1 5.7.7 1 1.3 1.1 3 .2 1.1-.7 2.1-1.6 2.1-2 0-.5 1.1-1.2 2.5-1.5 1.4-.4 2.5-1.3 2.5-2.1 0-1.1.6-1.2 2.2-.6 2.7 1 3.6 3.1 1.3 3.1-1.4 0-1.6 1-1.4 5.7.2 3.7-.1 5.8-.9 6.1-.8.2-1.2-.9-1.2-3.2 0-3.6-1.6-4.9-2.6-2.1-.4.9-1.9 1.5-3.8 1.5-2 0-3.5.7-4.4 2-.7 1.1-2.1 2-3.2 2-2 0-2 .8-2 126v126h1080V777.3l-3-.1c-1.6 0-3.2.2-3.4.6-.9 1.4-25-.4-28.3-2.1-3.5-1.9-10.8-2.3-11.8-.7-.4.6-2.8.7-6.1.4-5.1-.6-5.4-.5-5.4 1.5 0 1.4.9 2.5 2.4 3.1 1.4.5 3.2 2 4.1 3.4.9 1.4 3.2 3 5.1 3.6 1.8.6 4.3 2.4 5.4 4 1.1 1.6 2.9 3.2 4 3.5 1.1.4 2.7 1.8 3.5 3.3.8 1.5 1.4 2.1 1.5 1.4 0-.7.5-1 1-.7.6.4.8 1.1.5 1.6-.4.5.5.9 1.8.9s2.7.3 3.1.7c.4.4 1.8.9 3.1 1 1.9.3 2.3 0 1.8-1.3-.5-1.4 0-1.5 3.8-.9 5.4.9 6.2 1.3 5.5 3-.3.8-.1 2.9.5 4.7 1.1 3.9.2 9.1-1.4 8.5-.7-.2-1.7.3-2.3 1.1-.9 1.2-1.5 1-4-1.2-5.5-4.9-5.4-4.9-5.4-2.4 0 2.1-.5 2.3-5.5 2.4-3.9 0-6.1.6-7.6 2l-2.1 1.9 2.6 2.2c1.4 1.2 2.6 2.7 2.6 3.3 0 .5.5 1 1 1 1.6 0 1.2 3-.5 3.7-1.5.5-4.5 5.3-4.5 7.1 0 .5 1.4 2.3 3.1 4 2.6 2.5 3.6 2.9 5.1 2.1 2.8-1.5 5.8-.2 5.8 2.7 0 1.9-.9 2.8-4 4-3.1 1.3-4 2.2-4 4 0 3-.4 3-3.7 0-4.2-3.9-12.3-4.5-12.3-1 0 .8-.8 1.4-1.8 1.4s-2.7.6-3.8 1.4c-2.5 1.8-11.3 2.4-12.2.9-1.7-2.7-8.2-.3-8.2 3 0 1.7-2.4 2.9-4.3 2.1-.7-.2-3.5.2-6.2 1.1-7.1 2.1-10.6 2-11.2-.5-.5-1.9-.7-2-2.3-.5-1.1 1-4.5 1.8-9 2.2-6.1.5-7.4.4-8.2-1-1.1-2-4.4-2.3-5.1-.5-.3 1-.9 1-3-.1-2.4-1.3-4.5-1.2-10.4.5-1.8.5-2.3.2-2.3-1.1 0-1.2-.5-1.5-1.6-1.1-.9.3-2.7.6-4 .6-1.4 0-2.4.6-2.4 1.4 0 .8-.9 1.8-2.1 2.1-1.2.4-1.8 1.3-1.5 2 .3.8-.4 1.7-1.7 2.1-1.2.4-2.3.2-2.5-.5-.2-.6-1.2-1.1-2.3-1.1-2.4 0-2.4-.8.1-3 2.1-1.8 2.1-1.8-1.2-2.6-1.8-.4-5.3-.7-7.7-.5-2.4.2-4.6-.2-5-.7-1-1.6-8.1.9-8.1 2.9 0 .9-.7 2-1.6 2.3-.8.3-1.2 1.1-.8 1.7.4.7-.1 1.8-1 2.5-1 .7-1.7 1.6-1.7 2 .1.5-.7.9-1.7 1-4.3.2-5.2.5-5.2 1.4 0 .5 1.1 1.2 2.4 1.6 3.8.9 6 4.1 6.1 8.5 0 3.6-.3 4-3 4.7-3.9 1.1-3.8 3.4.2 4.4 4.3 1.1 5.2 2.8 1.4 2.8-3 0-4.3 2.1-2.2 3.5.5.3.9 2.5.8 5-.2 3.4-.7 4.7-2.4 5.6-1.2.7-2.3 2.1-2.5 3.3-.2 1.4-1.4 2.3-4 2.9-2.1.5-3.8 1.3-3.8 1.8s-.7.9-1.6.9c-1.3 0-1.4-.3-.5-1.4 1.7-2-.7-3.3-13.4-7.3-2.7-.8-5.3-2-5.7-2.6-.5-.8-1.5-.4-3.1 1.1-1.3 1.2-2.9 2.2-3.5 2.2-.7 0-1.2.4-1.2 1 0 .5-1.1 1-2.5 1-1.5 0-2.5.6-2.5 1.5 0 .7-.7 1.8-1.7 2.3-2.2 1.3-3.4 10.6-1.7 13 .8.9 1.4 2.5 1.4 3.4 0 1.1.8 1.8 2.1 1.8 2.1 0 4.9 2.1 4.9 3.8 0 .8 2.1.6 12.3-1.3 2-.4 3.7-1.2 3.7-1.6 0-2.1 2.9-.6 5.5 3 2.6 3.4 3.1 3.7 4.2 2.2 1.5-1.9 1.7-5.8.4-6.3-.5-.2-.1-1.9.9-3.8 1.1-1.9 2.3-4.5 2.9-5.7.8-1.8 1.6-2 5-1.6 2.9.4 4.4.1 5.6-1.1 2.5-2.5 9.9-2.1 12.7.6 1.9 1.9 2.4 3.5 2.7 8.6.3 6.8-1.4 10.2-4.9 10.2-1 0-3.2 1.3-4.8 2.9-1.7 1.5-3.5 2.4-3.9 2-.5-.5-2.4-.4-4.3.1-3.5 1-7 .7-11.7-1.1-2.5-.9-3.1-.7-5.4 2-1.4 1.7-3 3.1-3.6 3.1-.6 0-1.3.6-1.6 1.4-.3.8-1.9 1.7-3.6 2.1-1.7.4-3.3 1.1-3.6 1.5-.3.5-2 .7-3.7.3-2.7-.5-3-.4-2.5 1.1.8 2.1-6 9.6-8.7 9.6-.9 0-1.6.4-1.6 1 0 .5-1.7 1-3.8 1-2.1 0-4.3.5-4.9 1.1-.6.6-2.6 1.2-4.4 1.3-8.2.7-7.7.4-5 2.6 1.3 1.1 2.9 2 3.6 2 .7 0 2 1.1 2.9 2.5 1.6 2.4 1.6 2.6-.9 3.5-3.7 1.4-11.2 1.3-11.8-.3-.3-.8-1.6-.1-3.6 2l-3.1 3.2-5.2-2c-7.4-2.9-8.3-3.4-8.6-5.3-.5-2.4 3.9-2.1 4.5.4.6 2.3.9 2.4 6.9.9 7.4-1.9 9.8-7.6 4.4-10.7-1.6-.9-3-2.4-3-3.3 0-1.8-1.9-3.9-3.7-3.9-.7 0-3.2-1.2-5.5-2.8-2.2-1.5-5.2-3.5-6.7-4.4-1.4-1-3.8-1.8-5.3-1.8-1.6 0-2.8-.4-2.8-1 0-.5-.6-.7-1.4-.4-.8.3-1.7.1-2.1-.5-.3-.6-.1-1.1.6-1.1.8 0 .8-.4-.1-1.5-.7-.8-1-2.6-.8-4 .4-1.6.1-2.5-.8-2.5-.7 0-3.4-1.8-5.9-4-2.5-2.2-5-4-5.6-4-.5 0-.4-.8.2-1.8 1-1.5.8-2.5-1.1-5-1.3-1.8-2.9-3.3-3.4-3.3-.6-.1-2.1-.3-3.4-.4-5.9-.6-3-3.5 3.5-3.5 3.8 0 4.2.2 4.5 2.7.4 3.2 2.8 4.4 2.8 1.4 0-2.4 3.1-4.6 7.6-5.6 2-.4 3.4-1.4 3.7-2.6.5-1.8.1-2-2.6-1.8-2.8.2-10.9-1.5-13-2.8-1.2-.7 1.7-3.1 4.4-3.5l2.4-.4-2.7-1.4c-1.6-.7-2.8-1.6-2.8-2 0-.4 2.8-1 6.2-1.4 3.9-.4 6.5-1.2 7.1-2.1 1-1.9 2.7-1.9 2.7 0 0 .8.6 1.5 1.4 1.5.8 0 1.6 1 1.8 2.2.5 4 4.5 5 10.8 2.8 5-1.7 5.5-2.2 5.3-4.6-.1-1.5-.6-3.1-1-3.5-.4-.4-4.9-.9-9.8-1-5-.1-11.9-.6-15.3-1.1-5.2-.8-7-.7-9.8.7-3.6 1.7-4.3 3.2-2 4.1.8.3 1.2 1.3.9 2.5-.3 1-.9 1.6-1.4 1.3-.5-.3-4.5.3-8.9 1.2-6.3 1.4-8.5 1.5-10.5.6-3.5-1.6-3.1-2.8 1.8-5.8 2.3-1.5 4.4-3.1 4.5-3.6.2-.5 2-1.5 4-2.3 1.9-.9 5.3-3.3 7.5-5.5 2.1-2.2 4.3-4 4.9-4 .6 0 2.7-1.6 4.6-3.6 2.7-2.8 4-3.4 5.8-3 2.9.8 3.2-1 .4-1.9-2.3-.7-2.7-2.5-.6-2.5.7 0 1.9-.7 2.6-1.5.7-.9 2-1.3 2.9-1 5.2 1.6 5.5-5.8.4-8.8-3.6-2.1-17.5-2.8-26.8-1.4-3.5.6-4.6.5-3.5-.2.8-.6 2.5-1.1 3.6-1.1 3.2 0 2.7-4.8-.8-8.1s-3.5-4.4.2-6.6c4.9-2.9 5.1-7 .4-9.2-1.4-.6-3.2-1.1-4-1.1-1 0-1.3-.6-1-1.8.5-1.5.1-1.7-3.2-1.4-3.2.3-4.1 0-5.7-2.4-1.1-1.6-3.3-4.1-4.9-5.6-1.6-1.6-2.7-3-2.5-3.1.2-.2 1.6-.8 3.2-1.5 3.6-1.5 3.5-3.2-.3-3.2-1.6 0-3 .3-3 .8 0 .4-4.6.8-10.2.8-5.7 0-11.6.4-13.3.8-1.6.4-5 1-7.5 1.3-6.1.8-9.3 3.7-8.5 8 .4 2.5.1 3.5-1.6 4.6-1.2.9-2.7 1.3-3.4 1.1-.7-.3-1.5.4-1.8 1.5-.3 1.2-1.3 2.1-2.4 2.1-1 0-2.7.7-3.7 1.5-1.1.8-3 1.5-4.2 1.5-3.1 0-5.5 1-4.8 2.1.3.5 1.4.9 2.4.9 1.1 0 3.1.5 4.6 1.2 2.3 1.1 2.6 1.6 2.1 5-.5 3.6-.4 3.8 2.4 3.8 2 0 2.9.5 2.9 1.7 0 .9-.3 1.3-.7 1-.3-.4-1.8 0-3.1.9-2.2 1.5-2.7 1.5-3.6.2-.8-1.1-1.8-1.3-3.6-.6-3.4 1.3-3.4 1.3-1.4 4.7 2.2 3.6 4.3 4.5 9 3.6 2.7-.5 3.4-.3 3.4 1 0 .9-.5 1.3-1.1.9-.6-.3-1.5-.1-1.9.7-1.4 2.1-9.3 3.6-18.2 3.2-4.5-.1-8.8-.5-9.6-.8-.7-.2-2.2.4-3.3 1.4-2 1.8-2 1.9 1.4 3.9 2.2 1.3 3.6 3 4 4.8.6 3.5.2 4.4-2.4 4.4-1 0-1.9.4-1.9.9 0 1.8-5.9 3-11 2.2-2.7-.4-5.1-.4-5.2.1-.2.4-4 1.4-8.5 2.1-7.2 1.2-8.5 1.1-10.7-.2-2.3-1.4-2.8-1.4-5.5.2-3.5 2.1-8.2 1.9-7.8-.2.3-1.9-2.4-2.5-6.9-1.6-2.5.4-3.8 1.4-4.7 3.3-.6 1.5-1.7 3.1-2.4 3.5-.7.4-1.3 1.6-1.3 2.5 0 .9-.9 2.3-2 3-2.7 1.6-2.5 3.1.5 4.2 1.4.5 2.5 1.7 2.5 2.8 0 2.3 3 5.2 5.3 5.2 2 0 2.3-2.6.5-3.3-.7-.3 2.1-.4 6.2-.4 4.1.1 8.3-.2 9.2-.7 2.5-1.2 6 2.7 5.2 5.9-.5 2.2-.3 2.5 2 2.5 1.4 0 2.6.4 2.6.8 0 .5 2.6.6 5.8.4 5.3-.4 5.9-.2 7.1 2.1 1.6 3 .8 4.7-2.2 4.7-1.3 0-3.2.7-4.4 1.5-1.2.9-3.6 1.4-5.4 1.3-1.9-.1-3.4.3-3.7 1-.2.6-1.2 1.2-2.3 1.2-1 0-1.8.6-1.7 1.2.2.8-.9 1.3-2.9 1.4-1.8 0-3.6.3-3.9.7-.4.4-1.8.7-3.1.7-2.2 0-5 1.2-8 3.5-2.4 1.8-7.3 7-7.3 7.7 0 .5-.8.8-1.7.8-1.6.1-1.6.2.1 1.5 2 1.5 2 1.5-.1 4.3-1.1 1.5-3 2.8-4.2 3-1.1.2-2.1.8-2.1 1.3s-.8.9-1.7 1c-1.1 0-1.3.3-.5.6.6.2 1.2 2.1 1.2 4.2 0 2.8.4 3.7 1.8 3.9.9.1 3.4.3 5.4.4 2 .2 4 .7 4.4 1.1.4.4 1.8.7 3.1.7 3 0 3.2 3.5.2 4.3l-2.2.6 2.4 2.9c3.4 4.1 6.7 6.4 10.3 7.2 2.7.5 3.1 1 3 3.7-.2 3.9-6.3 9.8-12.9 12.3-2.6 1-3.2 2.4-1.5 3.5 1.7 1 .1 2.5-2.8 2.6-2.3.1-2.2.3.8.8l3.5.7-4.3 1.3c-2.4.7-4.9 2.2-5.8 3.6-1.9 3-5 3.2-7.8.6-3.1-2.8-9.4-6.1-11.9-6.2-1.2-.1-3.7.2-5.4.6-2.7.6-3.3.4-3.3-.9 0-.9-.4-1.6-1-1.6-1.5 0-1.2-4.3.5-6.6.8-1.2 1.2-2.4.8-2.7-.3-.4.3-1 1.3-1.3 2.9-1.1 6.4-4.6 6.4-6.5 0-.9.7-1.9 1.5-2.3.8-.3 1.5-1 1.5-1.6 0-.5-.7-1-1.5-1s-1.5.4-1.5.8c0 1.1-7.1 4.4-7.8 3.7-.4-.3-.1-1.4.5-2.5 1.7-2.6-1-4.9-3.8-3.2-2.4 1.6-4.6 1.5-5.2-.1-.6-1.6-1.4-.7-2.2 2.6-.6 2.1-.4 2.7.9 2.7.9 0 1.6-.5 1.6-1 0-1.2 4-1.3 5.9-.1 1.2.8.9 1.5-1.4 4.3-1.5 1.8-3.3 3.4-3.9 3.4-.6.1-1.3.3-1.6.4-.3.1-3.3.4-6.7.5-4.5.2-6.6-.2-7.5-1.2-.9-1.1-.9-1.7.3-2.4 1-.8.8-.9-.8-.4-1.9.5-2.3.2-2.3-1.4 0-1.7-.6-2.1-3.5-2.1-2.8 0-3.5.4-3.5 2 0 2.6-3.6 2.7-5 .1-1.4-2.7-1.3-2.9 1.3-3.3 1.6-.2 2.3-1.1 2.5-3.1.2-1.5.8-2.7 1.3-2.7s.9-.7.9-1.5.5-1.5 1-1.5c.6 0 1-.5 1-1.1 0-.7-1.1-.9-3.2-.4-1.8.3-5.4.9-8 1.2-3.9.4-4.9.2-5.9-1.5-1-1.6-1.7-1.8-3.6-1.1-1.4.5-4.3.7-6.6.4-3.7-.4-3.9-.3-1.2.5 2.4.7 2 .8-2.2.4-3-.2-5.4 0-5.8.6-1 1.7-5.8 1.3-5.2-.4.4-1 .1-1.3-.9-.9-.8.3-1.4-.1-1.4-1.1 0-.9-.7-1.6-1.5-1.6-.9 0-1.5.9-1.5 2.3 0 2.6-4.2 7.4-7.7 8.8-1.3.5-4.8.9-7.7.9-3.5 0-5.8.5-6.6 1.5-.7.8-1.7 1.5-2.2 1.5-1.9 0-3.7-2.8-3.1-4.9.4-1.6 1.1-1.9 2.8-1.5 1.3.3 2.6.1 2.9-.5.9-1.5-2.4-7-4.6-7.7-1.9-.6-9.8 1.5-9.8 2.6 0 1.3-9.4 1.9-11.5.8-1.1-.6-2.1-1.2-2.3-1.3-.5-.4 2.2-7.1 3.6-8.8.8-.9 2.8-1.7 4.3-1.7 3.3 0 4.3-1.3 3.5-4.6-.4-1.5-1.4-2.4-2.6-2.4-1.3 0-2-.7-2-2 0-1.1-.7-2-1.5-2s-1.5-.5-1.5-1c0-.6.6-1 1.3-1 .8 0 2.4-1.1 3.7-2.5 1.2-1.3 3.8-2.9 5.6-3.5 3-1 3.3-1.4 2.3-3.2-.9-1.6-1.7-1.9-4.4-1.4-1.9.4-3.6.2-4-.4-.9-1.4 5.5-7 8-7 4.7-.1 14.5-5.2 14.5-7.7 0-.5 1.4-1.4 3.1-2 2.7-1.1 3-1.5 1.9-2.8-1-1.3-.9-1.5.6-1.5 2.4-.1 7-2.6 6.6-3.7-.1-.4.6-.9 1.8-1.1 3-.5 2.6-4-.5-4.8-1.4-.3-3-1.5-3.6-2.5-.5-1.1-1.7-1.9-2.5-1.9s-2.5-1.1-3.7-2.4c-1.5-1.6-3.9-2.7-7-3.1-4.9-.8-5.6-.2-3.3 2.4.8.9 1.8 3.3 2.1 5.4.7 3.6.6 3.9-1.6 3.7-4.8-.4-5.1-.1-2.3 3.5 1.4 1.9 3.5 3.5 4.6 3.5 1.1 0 1.6.4 1.2 1.1-.3.6-2 .9-3.8.6-2.1-.3-5 .4-8.7 2.2-3.6 1.7-6.4 2.4-7.5 2-1.1-.4-2.9-.5-4.1-.2-3.5.8-4.7-.6-2.6-2.9 1-1.1 1.6-2.3 1.3-2.7-.3-.3 1-1.3 2.7-2.1 3.5-1.6 4.7-4.6 1.4-3.5-1.1.3-3.3-.3-5.3-1.5-2.3-1.4-5-2-9.1-2-5 0-5.8-.2-5.5-1.7.2-1.3 1.4-1.9 4.1-2.1 2-.2 3.7-.7 3.7-1.2 0-1 6.4-2 15-2.4 3.6-.2 7.6-.8 9-1.4l2.5-1.1-3.2-1.2c-1.9-.8-3.7-2.5-4.4-4.1-1-2.4-.8-3.1 1.5-5.9 4.3-5 3.3-8.9-2.3-8.9-2 0-4.2-.4-5-.9-.7-.5-3.2-.3-5.9.5-5.5 1.7-8.5 1.9-6.2.4 1.1-.7 1.2-1 .2-1-.9 0-1.1-.7-.7-2 .3-1.1.2-2-.4-2-.5 0-1.6-.3-2.5-.6-1-.4-1.6-.1-1.6 1 0 1-.6 1.3-1.5.9-.9-.3-2.1.2-2.8 1.1-1.1 1.6-1.4 1.5-3.4-.7-1.5-1.8-3.5-2.6-7.6-3.1-4.3-.6-5.5-1.1-5-2.2.8-2.2-2-2.6-6.8-1-2.4.9-5.4 1.6-6.5 1.6-1.2 0-2.7.6-3.3 1.4-.6.8-3.2 1.7-5.6 2.1-4.1.6-4.8.3-7.7-2.4-1.8-1.7-4-3.1-4.8-3.1-1.2-.1-1.1-.3.2-1.1 1-.5 1.8-1.4 1.8-2 0-1.3-6-3.8-7.7-3.2-.8.3-1.3-.2-1.3-1.2 0-.9.9-1.9 2-2.2 1.1-.3 2-.9 2-1.4 0-.4 1.4-2.4 3.2-4.4 3-3.5 3-3.6 1-4.2-1.2-.3-2.2-.8-2.2-1 0-.3 1.9-2.3 4.1-4.5 4.1-4 4.2-4.1 10-3.4 3.4.3 6.1.2 6.4-.4.3-.6 1.7-1 3.1-1 1.4 0 2.4-.6 2.4-1.4 0-.8 1.7-2.8 3.8-4.3 5.1-3.8 5.4-4.5 3.1-6.6-2.1-1.9-2.3-2.7-1.1-4.2 1.1-1.5 8.8-5.5 10.6-5.5.9 0 2.4-.4 3.4-.9.9-.5 3.5-1.6 5.6-2.6 2.3-.9 3.5-1.9 2.9-2.3-.6-.4-1.3-2.5-1.5-4.6-.3-3.4-.7-4.1-3.3-4.8-3.1-.9-14.3-.2-16.1 1-.6.4-1.9 2.2-2.9 4.1-1.7 3.3-1.7 3.3-7 2.7-4.4-.5-5.6-.3-6.3 1-.8 1.4-2.8 1.7-10.8 1.9-7.7.1-11 .7-14.8 2.3-2.7 1.2-5.5 2.2-6.2 2.2-.8 0-1.4.4-1.4 1 0 .5-1.6 1.6-3.5 2.4-2.7 1.2-3.5 2.1-3.5 4.1 0 3.7 2.1 4 7.9 1.1 2.8-1.4 5.5-2.6 6.1-2.6 2 0 1 4.7-1.6 6.9-4.3 3.8-2.9 5.6 4.6 5.6 5.7.1 6.5.3 6.8 2 .2 1.3 0 1.6-.5.8-.7-1-1.5-.9-3.8.3-1.6.8-5.1 2-7.7 2.5-3.6.8-5.5 1.9-7.4 4.4-1.9 2.5-3.5 3.4-6.8 3.9-3.5.6-4.5 1.2-5 3-.5 2.1-1.4 2.5-6.7 3.1-7.5.9-13.5 4-11.8 6.1.6.8 1.8 1.4 2.5 1.4 1.5 0 1.8 1.8.6 3.6-1.2 1.9-9.2 5.5-11 5.1-1.5-.4-1.5-.5.1-.6 1 0 1.5-.6 1.2-1.1-.4-.6-.1-1.7.5-2.5.9-1.1.9-1.5.1-1.5-.6 0-1.1.4-1.1 1 0 .5-.5 1-1.1 1-.6 0-.9-.6-.6-1.4.7-1.7-2.4-4.3-5.5-4.8-2-.3-2.3.1-2 2.8.4 4-1.5 4.8-6.3 2.8-3-1.2-3.4-1.8-2.9-3.9.5-2 0-3.1-2-5-3.5-3.2-3.3-5.1.9-7.1 3.6-1.7 4.1-2.8 2.6-5.3-.6-1 .7-3.3 4.7-8 3-3.6 6.2-7 7.1-7.5 1.5-.9 6.4-4.9 12.4-10.3 3-2.7 8-4.2 14-4.3 3 0 3.9-.5 4.6-2.3.5-1.2.6-2.3.2-2.4-.3-.1-1.9-.4-3.4-.8-2-.4-2.7-1-2.3-2 .3-.8 0-1.5-.7-1.5-.7-.1 0-.8 1.6-1.6 1.5-.8 2.7-2.1 2.7-2.9 0-.8 2.8-2.7 6.2-4.3 7.5-3.5 10.6-6.5 9-8.5-.9-1-.9-2.1.1-4 .6-1.5 1.5-2.7 2-2.7.4 0 .7-.7.7-1.5s.9-1.9 2-2.5c1.1-.6 2-2.1 2-3.3 0-1.8 1.4-3.1 6.1-5.7 4.6-2.6 6.2-4.1 6.6-6.2.9-4.7 4.4-7.3 9.5-6.9 4.8.2 11.5-2.7 11-4.8-.2-1.1 6-1.6 7.1-.5.9 1-.4 3.4-1.8 3.4-.8 0-1.7.4-2 1-.4.6 1 1 3.6 1 3.5 0 4-.2 2.9-1.5-1.8-2.2-.3-3.5 4.2-3.5 3.3 0 3.8-.2 2.9-1.4-.6-.7-.9-2.1-.5-3 .7-1.7 4.4-2.3 4.4-.6 0 .5-.9 1-2 1-2.6 0-2.6 1.7 0 2.5 1.3.4 3.3-.1 5.3-1.4 2.7-1.7 2.9-2.1 1.1-2.1-1.1 0-2.8-.8-3.8-1.8-1.5-1.8-1.5-1.9.9-3 1.4-.6 2.5-1.8 2.5-2.7 0-1.6 3.6-2 7.8-.9 2.4.7 3 3.8 1 4.8-.7.4.3.3 2.2 0 1.9-.4 5.5-1 8-1.3 3.3-.5 4.4-1.1 4.1-2.1-.8-3.4-.5-4.4 1.4-4.8 1.1-.2 2.9-1.2 4-2.2 1.8-1.6 13.2-6 15.5-6 .6 0 2.9-1.2 5.3-2.7 2.3-1.5 6.5-3.1 9.2-3.5 10.8-1.9 12.8-2 12.1-1-1.1 1.8.8 2.1 4.2.7 3.4-1.5 4-3.3 2-5.4-1.1-1-1-1.1.3-.6.8.3 2.9-.1 4.5-1 3.5-1.8 6.5-1.9 8.6-.3 2.2 1.7 2.6 6.1.9 8.2-1.2 1.4-1.1 1.9.3 3.4 2 2.3 2 3.1-.1 5.5-1.7 1.8-1.7 2 .2 3.4 2 1.4 7.5 1.4 12.3-.2 1.6-.5 2.2-.3 2.2.7 0 2 7.5 3 12.2 1.8 2.7-.8 3.9-1.9 5.3-5s2.2-3.9 3.6-3.5c1.2.4 2.6-.3 3.9-1.8 1.4-1.6 2.9-2.3 4.1-2 1.2.3 1.9 0 1.9-.8s.7-2.2 1.4-3.2c1.1-1.4 3.5-1.8 13.2-2.3l11.9-.6 3.2-3.4c1.8-1.9 4.6-3.7 6.2-4 2.4-.5 3.1-1.2 3.1-2.9 0-1.3-.6-2.6-1.2-2.8-1-.4-1-.6 0-.6.6-.1 1.2-1.2 1.2-2.6 0-1.4.4-2.5.8-2.5 1.3 0 6.5-4.3 10.7-8.9 2.2-2.4 5-4.7 6.3-5.2 2.7-1 2.9-2.9.3-3.6-1.6-.4-.7-1.5 4.7-6.1l6.6-5.6 7 .2c3.9.1 7.5.7 8 1.2 1.8 1.8-.8 4.5-4.5 4.6-6.5.2-7.9.4-7.9 1.4 0 .5 1 1 2.3 1 1.2 0 3 .7 4 1.4 1.8 1.4 6.3 1 7.3-.5.3-.5 2.1-.9 4-.9 3.1 0 3.4.3 3.4 2.9 0 1.6-.6 3.2-1.2 3.5-.7.3.8.5 3.4.3 3.8-.2 4.5.1 3.8 1.3-.4.8-.6 2-.3 2.6.2.6-.3 1.7-1.1 2.3-.8.7-1.2 2-.9 2.9.3 1.2.2 1.3-.4.5-.5-.7-2.5-1.9-4.6-2.8-2.9-1.2-3.7-1.2-3.7-.2 0 .7-2.4 3.9-5.4 7.1-4.9 5.3-6.2 8.6-3.4 8.6.6 0 .7.8.3 1.7-.4 1-.8 2.5-.9 3.3-.3 1.8-1.4 4.9-2.7 7.3-.5 1-.7 2.2-.3 2.8.8 1.4-2.5 4.9-4 4.3-.7-.3-3.2 1.1-5.5 3.1-2.8 2.2-5.3 3.5-7.2 3.5-4.3 0-9.5 2.5-11.5 5.5-1 1.5-2.3 2.4-3.1 2.1-2.1-.9-6.1.4-6.7 2-.8 2.1.2 4 3 5.2 1.3.7 2.4 1.6 2.4 2.1 0 1.6-5.3 4.4-8.8 4.6-1.8.1-3.6.5-3.9.9-1.2 1.2-1 4.5.4 5 2.4 1 1.4 2.8-1.2 2.2-2.5-.6-2.5-.6.9 4.1 3 4.2 3.3 5 2.1 6.6-1.1 1.6-2.1 1.7-6.2 1-2.6-.4-5.5-.7-6.3-.5-2.6.3-6.1-.8-5.5-1.8.4-.6-.6-1-2.2-1-2.2 0-2.5.2-1.3 1 1.2.7.8 1.2-1.8 2.1l-3.3 1.1 4.8 3.4c2.6 1.8 6 3.9 7.6 4.5 3.4 1.4 3.6 3.9.2 3.9-1.4 0-3.3.9-4.2 2-1 1.1-2.8 2-4 2-1.6 0-2.1.4-1.7 1.5.7 1.7 5 2.1 5.6.5.2-.5 5.7-1.1 12.3-1.4 8-.2 13.2-.9 15.7-2 2.1-.9 5.4-1.6 7.5-1.6 3.6 0 3.9-.3 6-4.7 2.4-5.1 1.7-6.8-2.3-5.8-3.1.7-7.7-1.2-9.3-3.7-1.2-2-1.1-2.4 1.4-4.6 2-1.7 3-2 3.5-1.1 1 1.5 10-.9 10-2.6 0-1.1 5.3-5.5 6.5-5.5.4 0 3.7-1.3 7.5-3 4.8-2.1 8.4-3 12.2-3 3 0 5.8-.4 6.4-.9.5-.5 4.3-1.1 8.4-1.3 6.9-.4 7.5-.6 7.5-2.6 0-1.2 1.1-2.9 2.4-3.8l2.4-1.7-2.7-1.4c-1.7-.9-2.6-2.2-2.6-3.8 0-2.2.3-2.3 3.4-1.8 3.5.5 3.5.5 3-2.9-.5-4.7 1.9-6.8 8.9-7.5l5.4-.5.7 5c.7 5.4 1.8 6.8 5.6 7.4 2.2.3 2.5.7 2.3 4.1-.2 3.2 0 3.7 2 3.7 1.2 0 3-.9 4-2 .9-1.1 2.3-2 3.2-2 .8 0 1.2-.6 1-1.3-.2-.6-.7-2.4-.9-4-.3-1.5-1.1-4.1-2-5.7-.8-1.7-1-3-.5-3s.9.6.9 1.2c.1.9.5.8 1.3-.3.7-.9 2.6-2.3 4.3-3.2 1.7-.9 3.4-2.3 3.7-3.1.3-.8 3.2-2.7 6.3-4.2 3.1-1.5 8.1-5.1 11.1-8 3-3 6-5.4 6.7-5.4 2.5 0 8.5-6.9 8.1-9.2-.6-3 2.2-5.8 5.7-5.8 2.9 0 8.8-5.1 8.8-7.6 0-1.8 5.1-3.6 12-4.1 3.6-.3 7.6-1.2 8.9-2.1 1.8-1.1 2.6-1.2 2.9-.3.3.8.8.9 1.6.2.7-.6 5-1.3 9.7-1.7 7.3-.6 8.8-1.1 11.7-3.5 2.8-2.5 4.1-2.9 9.2-2.9 3.3 0 6-.4 6-1s1.7-1 3.8-1c2.1 0 4.7-.7 5.8-1.5 3.1-2.1 9.5-2.1 14 0 2.2 1.1 6.9 2.1 10.7 2.3 5.8.4 7 .1 8.2-1.4 1.7-2.4 1.3-3-2.3-3.7-3.4-.7-9.2-5.3-9.2-7.3 0-1.8-2.4-1.8-4.2-.1-.7.8-4 1.6-7.3 1.9-3.3.3-5 .4-3.7.1 1.2-.2 2.2-.9 2.2-1.5 0-.7-1.3-.7-3.7-.2-5 1.1-12.5.8-17.1-.7-4.8-1.6-13.2-10.1-13.2-13.6 0-1.6-.7-2.7-2-3-2.4-.6-2.4-1.2-.5-3.7.8-1.1 1.5-3 1.5-4.3 0-1.7.6-2.3 2.3-2.3 1.2 0 2.8-.4 3.5-.9 2.2-1.4-1.6-2.3-4-1-1.6.8-2.3.8-2.9-.2-1.9-3-.5-12.9 2.2-15.8 1.1-1.1 1.9-2.3 1.9-2.6 0-.5 1.3-2.2 5.7-7 1.3-1.5 2.2-3.2 2-3.8-.5-1.4 1.8-5.8 5.2-10.3 1.3-1.8 4.8-4.4 7.8-5.9 3-1.6 5-3.2 4.6-3.6-.5-.5-5.4-1.2-10.8-1.6-9.6-.8-10-.9-9.7-3.1.2-1.2-.6-3.5-1.7-5.1-1.2-1.6-2.1-3.6-2.1-4.4 0-1.8 4.9-3.2 9.6-2.8 3.5.3 7.4-2.9 7.4-6 0-1.7 5-3.9 8.8-3.9 2 0 14.1-6.1 15-7.5.4-.7 2.4-2.1 4.4-3.1l3.8-1.9-1.9-3.6c-2.2-4-1.8-4.7 4.2-9.2 2-1.5 3.7-3.4 3.7-4 0-.7-2.4-2.1-5.4-3.1-6.3-2.2-7.2-4-4.5-8.6 2.5-4 4.7-6.3 8.4-8.6 7.3-4.5 11.3-8.5 13-13.2 1-2.6 2.4-5.4 3.1-6.3.8-.8 1.4-1.9 1.4-2.3 0-2.1 5-6.8 9.5-9.1 3.1-1.5 6.9-4.5 9.4-7.5 3.8-4.5 4.6-5 8.2-5 2.6 0 6.1-1.1 9.7-3 12.5-6.6 25-12.3 30.7-14 9.5-2.8 20.4-7.7 24.5-11 2.1-1.7 6.2-4 9.2-5.1 7.8-3.1 8.3-3.4 8.6-6.1.2-1.4 1.2-3.4 2.3-4.4 1-.9 1.9-2.3 1.9-3 0-.8 1.8-2.5 4-3.9s4-3.3 4-4.3c0-1.7 3.5-5 8.5-7.9 2-1.2 2-1.2 0-1.3-1.1-.1-5.5-.1-9.7 0-6.9.1-7.8-.1-8.8-2.1-1.8-3.2.1-4.5 10-6.9 16.1-4 19.5-4.9 21.5-5.9 1.1-.5 4.6-1.7 7.7-2.6 3.6-.9 6.2-2.3 6.8-3.5.6-1.2 2.1-2 3.5-2s3.9-1.3 5.7-3c1.7-1.7 4.1-3.2 5.2-3.4 1.2-.2 6-1.1 10.8-2 6.1-1.1 9.9-2.4 12.7-4.3l4-2.8.1-54.8c0-30.1-.3-54.7-.7-54.6-.5 0-3 .7-5.8 1.4zm-100.7 90.2c.2.7-.2 1.3-.8 1.3-.7 0-2.3.9-3.7 2-1.7 1.3-4.1 2-7 2-5.9 0-5.2-1.6 1.7-4.5 5.9-2.5 9.1-2.8 9.8-.8zm-103.3 77.2c-.6.5-2.7 1.3-4.9 1.7-3.1.5-3.8.4-3.4-.7.6-1.8 7-4 8.3-2.8.6.6.6 1.2 0 1.8zm42 17.5c1.9 1.4 1.9 1.5.1 3.5-1.1 1.2-2.7 2.1-3.7 2.1-2.2 0-5-3.7-4.2-5.6.7-1.8 5.4-1.8 7.8 0zm-205.7 58.9c.8 1 .7 2.3-.5 5-1 2-2.1 3.7-2.5 3.7-2.1 0-.4 1.9 2.2 2.5 2.1.5 4.6-.1 8.6-1.9 6.4-2.9 10-3.2 12.9-1 1.9 1.4 1.9 1.6.3 2.5-2.2 1.2-2.3 3.2-.3 4.9.8.7 1.5.8 1.5.2 0-1.3 3.5-2.1 5-1.2 2.6 1.6.1 3.6-5.9 4.8-6.6 1.2-9.1.8-9.1-1.4 0-1-1.5-1.4-5.9-1.4-3.3 0-6.3-.5-6.6-1-1-1.7-3.3-1.1-5.9 1.5-2.4 2.4-7.6 3.5-7.6 1.6 0-2.3 1.5-4.3 4.4-5.8 1.7-.9 2.5-1.8 1.9-2-.7-.3-1.3-1.4-1.3-2.5 0-1.7-.4-1.9-2.7-1.3-1.6.3-4.3.9-6 1.2-1.9.3-3.3 1.1-3.3 1.9 0 1.4-7.6 5.7-12.1 6.8-2.5.5-2.7.4-2.7-3 0-2.4.5-3.7 1.7-4.1.9-.4 2.8-1.4 4.2-2.4 1.4-1 5.2-2.8 8.5-4 3.2-1.2 6.8-2.8 7.9-3.5 2.5-1.8 11.9-1.8 13.3-.1zm83 10.5c.3.9-.2 1.3-1.4 1-.9-.1-1.9-.9-2.2-1.6-.3-.9.2-1.3 1.4-1 .9.1 1.9.9 2.2 1.6zM652 531c0 .5-.9 1-1.9 1-1.1 0-2.1.5-2.3 1.1-.2.6-1.5.9-2.8.7l-2.5-.3 3-1.7c3.4-1.9 6.5-2.3 6.5-.8zm-30 16c-2 1.3-6 1.3-6 0 0-.6 1.7-1 3.8-1 2.7 0 3.3.3 2.2 1zm2 4.5c0 1.7-2.9 3.4-4.7 2.8-3.1-1.1-1-4 3-4.2.9-.1 1.7.6 1.7 1.4zm108 1.4c0 1.2-2 2.5-2.7 1.8-.7-.7.6-2.7 1.8-2.7.5 0 .9.4.9.9zm6-.5c0 .9-3 1.4-3.5.6-.4-.6.3-1 1.4-1 1.2 0 2.1.2 2.1.4zm-98.5 4.6c-.3.5-2.3.9-4.3.9l-3.7-.2 4-.7c2.2-.4 4.1-.8 4.3-.9.2 0 0 .3-.3.9zm8.5 2.4c0 .7-1.1 1.6-2.5 1.8-3.3.7-4-.2-1.2-1.8 3-1.6 3.7-1.6 3.7 0zm146.7 1.2c-.3.3-1.2.4-1.9.1-.8-.3-.5-.6.6-.6 1.1-.1 1.7.2 1.3.5zM630 564.5c.9 1 2.4 1.3 5.4.9 3.2-.5 4.6-.2 6 1.1 2.4 2.5.6 3.9-4.1 3.2-10.3-1.5-12-2.4-10.9-5.2.7-1.9 2-1.9 3.6 0zm-6 1.5c0 .5-.7.7-1.5.4-.8-.4-1.5-.8-1.5-1 0-.2.7-.4 1.5-.4s1.5.4 1.5 1zm44 6.4c0 .2.3 1.1.6 1.9.4 1.1-.6 1.8-3.3 2.7-2.1.6-4.8 1.6-6 2.2-1.2.6-3 .7-4 .4-1.6-.7-1.5-.9 1-2.2 1.5-.8 2.7-1.9 2.7-2.4 0-.6 1.1-1 2.5-1s2.5-.5 2.5-1c0-.6.9-1 2-1s2 .2 2 .4zm-42 5.1c0 .9-.6 1.7-1.2 1.9-.7.2-2.2.8-3.3 1.2-1.9.7-1.9.8.3 1.1 1.2.3 2.2.9 2.2 1.5s-1.5.7-4 .3c-3.3-.6-4-.4-4 .9 0 .9-.5 1.6-1.1 1.6-.5 0-.8-.4-.4-.9.3-.5-.4-1.2-1.5-1.6-2.5-.8-2.5-1.7-.1-3.9 3.7-3.4 13.1-4.8 13.1-2.1zm11.5.4c1.8.7 1.7 1-1.5 2.6-4.1 2.1-6.7 4.5-4.9 4.5.7 0 .9 1 .6 3-.5 2.2-.2 3.2 1.1 3.9 2.6 1.5.3 3.1-2.8 1.9-2-.7-2.2-1.1-1-1.9 1.1-.8.7-.9-1.6-.5-4.2.7-4.9-.3-2.2-3.1 1.9-2 2-2.5.8-3.3-1.2-.8-1-1 1-1 1.9 0 2.1-.3 1.2-1.2-1.9-1.9-1.4-3.3 1.6-4.5 3.3-1.3 5.1-1.4 7.7-.4zm181.3 0c1 .6.4 1-1.8 1.5-4.5.9-7 .8-7-.3 0-1.8 6.6-2.6 8.8-1.2zM672 581.4c0 1.6-5 2.6-13.3 2.6-3.6 0-5.6-.4-5.2-1 .3-.6 3.6-1 7.3-1 3.7 0 7.4-.5 8.2-1 2.1-1.3 3-1.2 3 .4zm-59.5 3.6c-.3.5-1.1 1-1.6 1-.6 0-.7-.5-.4-1 .3-.6 1.1-1 1.6-1 .6 0 .7.4.4 1zm33.3.9c1 .6.7 1-1.3 1.5-3.1.8-5.4-.2-3.4-1.5 1.8-1.1 3-1.1 4.7 0zm165.7 3.7c-2.6 1.9-6.1 2.8-8.2 2-1.4-.6-1.5-.9-.2-2.1.8-.7 3-1.8 4.9-2.3 4.4-1.1 6.4.3 3.5 2.4zm-166.9.9c.7 1.7 6.9 2.1 7.9.5.3-.6 1.5-1 2.6-1 1 0 1.9.4 1.9 1 0 .5-.9 1-2 1s-2 .4-2 1c0 .5 2.4 1 5.4 1 3 0 6.1.3 7 .6 2.9 1.1.5 2.4-4.4 2.4-2.8 0-5 .5-5.2 1.2-.3.7-1.4.1-2.9-1.4-1.3-1.4-3.5-2.8-4.9-3.1-1.4-.3-3.7-.9-5.2-1.3-2.3-.5-2.8-.3-2.8 1.2-.1 1.8-.1 1.8-1.5.1-.7-1.1-1.1-2.5-.8-3.3.7-1.9 6.2-1.8 6.9.1zm-36.9 1.1c-.3.3-1.2.4-1.9.1-.8-.3-.5-.6.6-.6 1.1-.1 1.7.2 1.3.5zm10 8c-.3.3-1.2.4-1.9.1-.8-.3-.5-.6.6-.6 1.1-.1 1.7.2 1.3.5zM632 601c0 .5-.2 1-.4 1-.3 0-.8-.5-1.1-1-.3-.6-.1-1 .4-1 .6 0 1.1.4 1.1 1zm-24 2.5c0 1-1 1.5-2.9 1.5-1.6 0-3.6.7-4.5 1.5-.8.8-1.9 1.5-2.5 1.5-.6 0-1.1.5-1.1 1 0 1.1 1.7 2 4.6 2.4 1 .2 2 .8 2.1 1.3.5 1.4-7.6 9.3-9.4 9.3-3 0-.1-4.3 3.7-5.5 3.6-1.1 2.1-2-2.9-1.8-3.2.1-5.4-.3-6.1-1.2-1.4-1.6-.5-3.5 1.6-3.5.8 0 1.4-.5 1.4-1 0-.6-1-1-2.2-1-2.2-.1-2.2-.1-.4-1.2 1.5-.8 2.1-.8 2.4 0 .5 1.5 5.2 1.6 5.2.2 0-.6.7-1 1.5-1s1.5-.6 1.5-1.4c0-.9 1.3-1.6 3.3-1.9 1.7-.2 3.5-.5 4-.5.4-.1.7.5.7 1.3zm12.4 0c-.7 1.7-.7 1.7-2.9.9-1.3-.5-1.4-.8-.3-1.5 2.1-1.4 3.8-1 3.2.6zM585 608c1.2.7 1.2 1.3.4 2.7-1.3 2.1-3.5 2.4-4.1.5-.3-.6.2-1.2 1.1-1.2 2.2 0 2-1.7-.1-2.3-1.3-.3-1.4-.5-.3-.6.8 0 2.2.4 3 .9zm-15.8 6.1c-1.5 1.3-2.9 1.8-4.2 1.4-2.9-.9-2.5-2.3.8-2.8 5.5-.8 5.6-.8 3.4 1.4zm62.5 4.5c-.3.3-1.2.4-1.9.1-.8-.3-.5-.6.6-.6 1.1-.1 1.7.2 1.3.5zm-4.9 1.6c-.3.7-1.5 1.5-2.8 1.6-2.1.3-2.2.2-1.1-1.2 1.6-1.9 4.4-2.1 3.9-.4zm-92.2 5.4c-.3.9-.6 2.7-.6 4 0 2-.5 2.4-3 2.4-3.7 0-3.8-.6-.5-3.2 1.4-1.1 2.5-2.6 2.5-3.4 0-.8.5-1.4 1.1-1.4.6 0 .8.7.5 1.6zm41.1 0c-.3.3-1.2.4-1.9.1-.8-.3-.5-.6.6-.6 1.1-.1 1.7.2 1.3.5zm-19.2 3.4c-.3.5-1.6 1-2.8 1-1.8 0-1.9-.2-.7-1 2-1.3 4.3-1.3 3.5 0zm-38.8 2.6c-.3.3-1.2.4-1.9.1-.8-.3-.5-.6.6-.6 1.1-.1 1.7.2 1.3.5zm90.3 1.5c.3.4 3.2.4 6.5-.1 7.1-.9 8.5-.1 5.9 3.7-1 1.5-2.3 3.7-2.9 4.8-.6 1.1-2.4 2.2-4 2.5-2.5.5-3.7-.1-7.2-3.4-4.6-4.3-5.2-6-2.7-7 .8-.3 1.2-1 .9-1.6-.7-1.1 2.7-.1 3.5 1.1zm-77.2-.1c.6 0 1.2.7 1.2 1.6 0 1.3-.7 1.5-3.7.9-4.4-.8-4.7-1-3.8-2.5.4-.7 1.7-.9 2.9-.6 1.1.3 2.7.6 3.4.6zm-74.8 3c0 .5-.5 1-1.1 1-.5 0-.7-.5-.4-1 .3-.6.8-1 1.1-1 .2 0 .4.4.4 1zm85 0c0 .5-.7 1-1.6 1-.8 0-1.2-.5-.9-1 .3-.6 1-1 1.6-1 .5 0 .9.4.9 1zm-18 .4c0 .2-.7.6-1.5 1-.8.3-1.5.1-1.5-.4 0-.6.7-1 1.5-1s1.5.2 1.5.4zm-72.6 2.2c2.1.8.2 4.4-2.4 4.4-1 0-2.7 1.1-3.8 2.5-1.2 1.5-3 2.5-4.6 2.5-2.9 0-3.1-.4-1.5-4.9 1-2.8 1.5-3.1 5.5-3.1 2.4 0 4.4-.5 4.4-1 0-1.2.3-1.2 2.4-.4zm85.3 2c-.3.3-1.2.4-1.9.1-.8-.3-.5-.6.6-.6 1.1-.1 1.7.2 1.3.5zm-18 4.1c.2.6-.3 1.8-1.2 2.6-1.8 1.9-1.3 2.3 4.3 3.2 5.1.8 5.4 2 .6 3.5-2.9 1-4.1 1-6-.1-1.3-.7-2.7-.9-3.1-.6-.3.4.1.7 1 .7 3.1 0 1.7 1.7-2.4 2.9-3.1.9-4.4 1-4.9.1-.4-.6-1.1-1-1.6-.9-2.6.5-5.4-.3-5.1-1.4.1-.8-1.5-1.3-5.1-1.5-6.3-.4-6.7-2.6-.6-3 5.1-.3 12.4-2.2 12.4-3.2 0-.5 1.8-1.1 4-1.5 2.2-.4 4.3-1.1 4.6-1.6.7-1.2 2.6-.7 3.1.8zm-85.3 1.8c.8.8 2 1.5 2.7 1.5.8 0 .9.3.4.9-.6.5-3.6.6-7 .1-3.3-.4-5-.8-3.9-.9 1.2 0 2.4-.8 2.8-1.6.3-.8 1.2-1.5 2-1.5s2.1.7 3 1.5zm142 0c-.4.8-1 1.5-1.6 1.5-.5 0-.6.4-.3 1 1 1.6 4.1 1.2 8-1.1 2.8-1.7 4.1-1.9 5.8-1.1 2.2 1 2.2 1-.5 1.7-1.6.4-2.8 1.1-2.8 1.5 0 1.4-6.8 3.2-9.2 2.4-1.3-.4-3.3-1.4-4.6-2.2l-2.3-1.5 2.8-1.8c3.4-2.3 5.4-2.4 4.7-.4zM416 648c0 .5-.7 1-1.6 1-.8 0-1.2-.5-.9-1 .3-.6 1-1 1.6-1 .5 0 .9.4.9 1zm64 1.2c0 .9.3.9 1.2 0 1.6-1.6 4.8-1.5 4.8.2 0 .7-1.2 1.5-2.7 1.8-4.1.5-6.3-.1-5.6-1.8.6-1.7 2.3-1.9 2.3-.2zm80-.2c0 .5-.9 1-2 1s-2-.5-2-1c0-.6.9-1 2-1s2 .4 2 1zm-119.4 5.4c1.2 1.3 1.2 1.8-.8 3.5-2.4 2.4-4 2.6-6.9 1-2.4-1.2-1.6-2.7 2.5-4.5 3.9-1.7 3.5-1.7 5.2 0zm122.8.6c1.2 1.2-.2 3-2.5 3-2 0-9.9 3.6-10.9 5-.8 1-10 3.4-10.7 2.7-1.2-1.3.7-3.7 3.4-4.2 1.5-.4 3.6-1 4.5-1.6 1-.5 2.4-.9 3.2-.9.7 0 2.7-.7 4.2-1.6l2.9-1.5-3.5.6c-1.9.4-4.3.9-5.2 1.1-1 .3-1.8.1-1.8-.5s1.5-1.1 3.3-1.1c1.7-.1 4.3-.7 5.7-1.5 2.4-1.4 5.6-1.1 7.4.5zm-75.4 1c0 .5 1.2 1 2.8 1 3.9 0 6.1 1.6 3 2.2-3.3.6-9.8-.2-9.8-1.3 0-.5.5-.9 1.1-.9.5 0 .7-.5.4-1-.3-.6.1-1 .9-1 .9 0 1.6.4 1.6 1zm-66 3.5c-.7.8-1.9 1.5-2.7 1.5-1.3 0-1.3-.3-.3-1.5.7-.8 1.9-1.5 2.7-1.5 1.3 0 1.3.3.3 1.5zm39.3 3.4c-1.2 1-4.7 2.2-7.8 2.6-3 .3-5.5 1.1-5.5 1.6s-.9.9-2 .9c-2.4 0-2.5-.4-.3-3.6 1.1-1.7 1.8-2.1 2.3-1.4.5.9 1.3.9 2.7.2 1.1-.6 2.9-.9 4.1-.6 1.1.3 2.9.1 3.9-.5 3.2-1.8 5.1-1.3 2.6.8zm-66.6-.3c-.3.3-1.2.4-1.9.1-.8-.3-.5-.6.6-.6 1.1-.1 1.7.2 1.3.5zm14.8.4c.3.5-.1 1-1 1s-1.3-.5-1-1c.3-.6.8-1 1-1 .2 0 .7.4 1 1zm22.5 1.9c0 .5.9 1.3 2 1.6 1.1.3 2 1.2 2 2 0 .7-.9 1.5-2 1.8-1.1.3-2 .1-2-.4s-1.7-.9-3.7-.9h-3.6l2.3-2.5c2.3-2.5 5-3.3 5-1.6zm80-.1c0 .4-2.6 1.4-5.7 2.2-4.6 1.2-6.1 2.1-7.1 4.2-1.2 2.6-3.1 3.4-6.9 2.9-1.4-.2-8.2 3.8-6.8 4.1.6 0 2.4.2 4 .4 1.7.1 3.4.2 3.9.3 2.3.3-2 3.1-4.7 3.1-1.7 0-3.8.6-4.6 1.4-.9.7-2.6 1.7-3.8 2-2.8.9-3.1-1.1-.5-3 1.6-1.2 1.6-1.3 0-1.9-1.5-.6-1.3-1 1.1-3.4 4.4-4.3 8.3-6.8 11.9-7.6 1.7-.3 3.2-1 3.2-1.5 0-.4 1.9-1.5 4.3-2.3 4.6-1.6 11.7-2.2 11.7-.9zm-19.5 1.2c.4.6-.5 1-1.9 1s-2.6-.5-2.6-1c0-.6.9-1 1.9-1 1.1 0 2.3.4 2.6 1zm37.6 1c1.6 0 1 1.9-.9 2.9-1 .5-4.7 1.3-8.2 1.7l-6.4.7 1.5-2.4c1.2-1.7 2.9-2.6 6-3 2.4-.3 5-.4 5.7-.2.8.1 1.8.3 2.3.3zm-126.1.9c0 1-5.1 2.2-6.3 1.4-.4-.2-.5-.9-.2-1.4.8-1.2 6.5-1.2 6.5 0zm20 .6c0 .8-.4 1.5-1 1.5-.5 0-1 .6-1 1.2 0 1.7-5.9 8.2-8.7 9.7-2.7 1.4-3.3 1.4-3.3.1 0-.6.7-1 1.6-1 2.6 0 .6-1.7-2.8-2.4-2.5-.5-2.9-.9-2-1.8.7-.7 2-1.3 3-1.4.9 0 3.2-.1 5-.2 1.7-.1 3.2-.7 3.2-1.4 0-1.4 4-5.8 5.2-5.8.4 0 .8.7.8 1.5zm18 .5c0 .5-.4 1-1 1-.5 0-1-.5-1-1 0-.6.5-1 1-1 .6 0 1 .4 1 1zm16.7.6c-.3.3-1.2.4-1.9.1-.8-.3-.5-.6.6-.6 1.1-.1 1.7.2 1.3.5zM340 673c0 .5-.9 1.5-2 2.2-1.1.7-2 1.8-2 2.5s-.7 1-1.6.6c-1.6-.6-1.6-.7 0-1.8.9-.7 1.6-2 1.6-2.9 0-.9.8-1.6 2-1.6 1.1 0 2 .4 2 1zm101.3 1.2l2.5 2.3-3.1 2.7c-3.2 2.9-10 5.4-11.8 4.3-1.6-1 .7-3.2 4.1-3.9 1.7-.3 3-1 3-1.5 0-1.8-3.5-1.7-5.4.1-1.1 1-2.6 1.8-3.3 1.8-2 0 .7-3.7 4.4-6.1 3.7-2.5 6.6-2.4 9.6.3zm90.5 0c-.3.7-1.9 1.5-3.7 1.9-1.7.4-4 1.4-5 2.3-1.8 1.6-5.1 2.2-5.1.9 0-.3 1.5-1.9 3.3-3.4 3.4-3 11.3-4.2 10.5-1.7zm-83.8 2.4c0 .8-.5 1.2-1 .9-.6-.4-.8-1.1-.5-1.6.9-1.4 1.5-1.1 1.5.7zm66-1.2c0 .3-1.3 1.8-2.9 3.4-3.1 3.1-12.6 5.8-13.7 4-1-1.5 1.8-3.8 5.1-4.1 5.3-.7 9.5-1.9 9.5-2.8 0-.5.5-.9 1-.9.6 0 1 .2 1 .4zm-49.7 3.2c-.3.8-1.1 1.4-1.8 1.4s-2.7 1.4-4.4 3.2c-2.1 2.1-3.4 2.9-4.1 2.2-1.1-1.1 4.3-7.7 7-8.6 2.2-.8 3.9.2 3.3 1.8zm119.5-.8c.2.7-1.6 1.4-4.7 1.8-5.4.7-8.7 3-5.7 3.9.9.3 2.3.7 3.1 1 1.6.5 1.9 2.3.7 4.1-1.2 1.9-13.2 5.2-16.5 4.5-4.7-1-4.5-2.3 1.2-8.6 3.5-3.9 8.8-6.7 14.6-7.5 5.9-.9 6.7-.8 7.3.8zM403 679c1.2.8 1.1 1-.7 1-1.3 0-2.3-.5-2.3-1 0-1.3 1.1-1.3 3 0zm-11 5c0 1.3-2 1.3-4 0-1.2-.8-.9-1 1.3-1 1.5 0 2.7.4 2.7 1zm76.5 1c.4.6-.7 1-2.7.9-2.7 0-3-.2-1.3-.9 2.7-1.2 3.3-1.2 4 0zm-43.9 1.2c-.1.7-.1 1 .1.5.7-1 4.1-.9 4.8.3.3.5.1 1-.4 1-.6 0-1.1 1.2-1.1 2.6 0 1.7-.6 2.8-2 3.1-1.1.3-2 .9-2 1.4 0 1.3-4.4 1.1-5.8-.3-.7-.7-1.2-2-1.2-2.9 0-.9-1-2-2.2-2.4-1.4-.4-1.8-.8-1-1.2.6-.2 1.2-1 1.2-1.6 0-.7 2-1.3 5-1.5 3.6-.2 4.9.1 4.6 1zm-99.6.8c0 .5 1.4 1 3.1 1 3.8 0 3 1.5-1.3 2.5-3.6.7-9.8.9-10.4.2-.9-.8.8-3.6 2.4-4 3.2-.9 6.2-.7 6.2.3zm11 0c0 .5-.4 1-1 1-.5 0-1-.5-1-1 0-.6.5-1 1-1 .6 0 1 .4 1 1zm254-.1c0 .5-1.4 1.4-3.1 2-4 1.4-3.9 1.4-3.9-.5 0-.8.4-1.3.9-.9.5.3 1.2.1 1.6-.5.8-1.2 4.5-1.3 4.5-.1zm-61 3.1c0 1-.9 2.4-1.9 3-2.3 1.2-10.1 1.4-10.1.2 0-1.3 3.5-3.9 4.8-3.4.6.2 1.9-.1 2.9-.7 2.8-1.6 4.3-1.3 4.3.9zm-156.4 1.5c1.8 1.3 1.7 1.4-1.8 1.5-2.9 0-3.6-.3-3.2-1.5.8-1.9 2.5-1.9 5 0zm8.4 4c-1.3 1.4-2.9 2.5-3.7 2.5-.7 0-1.3.4-1.3.9s-1.8 1.1-4 1.3c-4.7.4-5.2-.6-1-2 1.6-.6 3.7-2 4.7-3.1 1-1.3 2.9-2.1 4.7-2.1h2.9l-2.3 2.5zm24 3.5c0 .5-.5 1-1.1 1-.5 0-.7-.5-.4-1 .3-.6.8-1 1.1-1 .2 0 .4.4.4 1zm-104.5 3.9c.6 1-2.1 4.1-3.6 4.1-.5 0-.9-1.1-.9-2.5 0-1.8.5-2.5 1.9-2.5 1.1 0 2.2.4 2.6.9zm41 1.1c.7 1.2-4.2 3.7-5.2 2.7-.4-.4.2-1.4 1.3-2.2 2.3-1.7 3.1-1.8 3.9-.5zm20 0c-1.1.5-2.7.9-3.5.9-.9 0-.8-.4.5-.9 1.1-.5 2.7-.9 3.5-.9.9 0 .8.4-.5.9zm78.5 1c0 .5-.4 1-1 1-.5 0-1-.5-1-1 0-.6.5-1 1-1 .6 0 1 .4 1 1zm-122.2 1.8c-1.4.2-3.2 1-3.8 1.8-1.4 1.6-5.6 1.9-6.5.5-1.1-2 3.2-3.6 8.1-3.2 3.2.4 4 .6 2.2.9zM328 708c0 .5-.5 1-1.1 1-.5 0-.7-.5-.4-1 .3-.6.8-1 1.1-1 .2 0 .4.4.4 1zm107-.6c0 .2-.7.6-1.5 1-.8.3-1.5.1-1.5-.4 0-.6.7-1 1.5-1s1.5.2 1.5.4zm-50.2 2.4c-1.6.2-2.8.8-2.8 1.3s-.8.9-1.7.9c-1.5-.1-1.5-.3.4-1.9 1.5-1.3 3.1-1.7 4.5-1.3 2.2.7 2.1.7-.4 1zm-96.8.2c0 .5-.2 1-.4 1-.3 0-.8-.5-1.1-1-.3-.6-.1-1 .4-1 .6 0 1.1.4 1.1 1zm35.5 1c.4.6-.7 1-2.5 1s-2.9-.4-2.5-1c.3-.6 1.5-1 2.5-1s2.2.4 2.5 1zm29.5 0c0 .5-.7 1-1.5 1s-1.5-.5-1.5-1c0-.6.7-1 1.5-1s1.5.4 1.5 1zm-54.3.6c-.3.3-1.2.4-1.9.1-.8-.3-.5-.6.6-.6 1.1-.1 1.7.2 1.3.5zm93 0c-.3.3-1.2.4-1.9.1-.8-.3-.5-.6.6-.6 1.1-.1 1.7.2 1.3.5zm-95.7 3.8c0 1.4-4.2 2.6-9.2 2.6-1.7 0-2.7-.4-2.3-1 .3-.6 2.1-1 3.8-1 1.8 0 3.9-.5 4.7-1 2.1-1.3 3-1.2 3 .4zm13.5 1.6c1 1.6-1.3 4.7-3.8 5.2-1.6.3-2.3 0-2.3-1.2s.6-1.5 2-1.2c1.3.3 1.7.1 1.2-.6-.8-1.3 0-3.2 1.4-3.2.5 0 1.2.4 1.5 1zm-29.7 2.2c-.3.7-1.5 1.4-2.9 1.6-2.4.4-2.4.3-.4-1.2 2.4-1.9 3.8-2 3.3-.4zM250 721c0 .5-.4 1-1 1-.5 0-1-.5-1-1 0-.6.5-1 1-1 .6 0 1 .4 1 1zm174.8-.1c1.1.7 1 1-.3 1.5-2 .7-3.8-.1-3-1.5.7-1.1 1.6-1.1 3.3 0zM240 724c0 .5-.2 1-.4 1-.3 0-.8-.5-1.1-1-.3-.6-.1-1 .4-1 .6 0 1.1.4 1.1 1zm52.5 2.7c.8 2.3.1 2.6-4.7 1.8-3.9-.7-4.1-.9-2-1.8 1.2-.5 2.2-1.3 2.2-1.8 0-1.3 3.8.3 4.5 1.8zm32.2-1.2c-3 2.2-11.6 4-13 2.6-.8-.8.1-1.1 3.6-1.1 2.6 0 4.7-.4 4.7-.9 0-1 2.2-1.8 5-2 1.2 0 1.1.3-.3 1.4zm11.3 1c0 .8-.5 1.5-1.1 1.5-.6 0-2.3 1.3-3.8 2.9-2.2 2.3-3.5 2.9-7.1 2.9h-4.5l3.5-1.2c7-2.6 8.5-3.4 10.4-5.5 2.3-2.5 2.6-2.6 2.6-.6zm-104.3 1.1c-.3.3-1.2.4-1.9.1-.8-.3-.5-.6.6-.6 1.1-.1 1.7.2 1.3.5zm7.3 1.9c0 .9-1.5 2.2-3.2 3-2.9 1.2-3.3 1.2-3.6-.2-.4-1.7 2.5-4.2 5.1-4.3.9 0 1.7.7 1.7 1.5zm7.3-.1c.9.7 1.7 1.8 1.7 2.5 0 1.6-3 1.3-3.6-.4-.4-.8-1.5-1.5-2.5-1.5s-1.9-.5-1.9-1c0-1.4 4.2-1.2 6.3.4zM281 735c-2 1.2-3.3.1-1.9-1.6.9-1.1 1.5-1.2 2.3-.4.8.8.7 1.3-.4 2zm24.3-.4c.4.4-1 1.6-3.1 2.7-2 1.1-4.3 2.8-5 3.8-.7 1.1-1.9 1.9-2.6 1.9-2 0-2.4 2-1.4 5.8.7 2.8 1.2 3.2 3.1 2.7 1.7-.5 1.9-.4.7.4-1 .7-1.1 1.1-.2 1.1.6 0 1.2.6 1.2 1.4 0 .9-1.6 1.7-4.1 2.1-4.6.8-5.8.2-4.2-2.4.6-1 .7-2.3.2-3.3-1.2-2.2-8.6-1.6-10.4.8-1.8 2.4-1.9 3.8-.2 3.1 2.5-.9 5.7 1.2 5.7 3.8 0 2.9-.7 3.2-2.7.7-1-1.2-1.6-1.4-1.9-.5-.3.7-1.2 1.3-2 1.3s-1.4.4-1.4 1c0 .5-1.9 2-4.2 3.2-2.3 1.3-6.2 3.5-8.7 4.9-9.9 5.7-12.9 6.9-16.9 6.9-3.1 0-4.2-.4-4.2-1.5 0-.8.4-1.5.9-1.5 1.7 0 5.9-5.1 5.6-6.8-.2-.9-.4-2.5-.4-3.4-.1-.9-1.3-2.8-2.7-4.1-2.1-1.9-2.4-2.9-1.6-4.2 1.1-2.1.1-6.5-2.2-10-1.5-2.3-1.4-2.4 1.7-3.1 1.7-.3 4.2-1.3 5.4-2.1 1.7-1.1 2.6-1.2 4.2-.3 1.4.7 2.1.7 2.1 0 0-.5.8-1 1.8-1s2.2-.4 2.7-.9c1.4-1.2 9.5-2.3 9.5-1.2 0 1.5-2.9 3.3-4.5 2.7-2-.7-1.8.4.5 3.2 1.9 2.3 3.7 2.4 11.3.6 1.7-.4 2.7-.2 2.7.5 0 .6-.4 1.1-1 1.1-2.6 0-.6 1.8 2.6 2.3 5.8 1 8.4-1.1 4.7-3.8-1.4-1.1-1.5-1.7-.5-3.9.7-1.7 1.7-2.4 2.7-2 .8.3 1.5.1 1.5-.4 0-1.6 13.9-3 15.3-1.6zm-31.3.8c0 .3-.4.8-1 1.1-.5.3-1 .1-1-.4 0-.6.5-1.1 1-1.1.6 0 1 .2 1 .4zm142 2.6c0 .5-.4 1-.9 1-.6 0-1.3-.5-1.6-1-.3-.6.1-1 .9-1 .9 0 1.6.4 1.6 1zm22.7.6c-.3.3-1.2.4-1.9.1-.8-.3-.5-.6.6-.6 1.1-.1 1.7.2 1.3.5zm201.8 2.3c.3.5 2.2 1.5 4.3 2.1 5 1.5 8.2 3.2 8.2 4.2 0 1.2-5.4 1-6.7-.3-.6-.6-2.9-1.2-5.3-1.3-2.7-.2-4.9-1.1-6.3-2.5-2.1-2.2-2.2-2.3-.3-3.6 1.9-1.4 4.7-.7 6.1 1.4zm-400.7 4.7c-.4 2-3.4 4.1-4.4 3.1-.8-.8 2.4-4.7 3.8-4.7.5 0 .8.7.6 1.6zm83.2-.1c-.7.8-1.6 1.5-2.1 1.5s-.9-.7-.9-1.5c0-.9.9-1.5 2.1-1.5 1.8 0 1.9.2.9 1.5zm-17.8 2.1c-.3 1-2.2.8-6.7-.6-2.6-.7-2.3-.8 2-.6 2.8.2 4.9.8 4.7 1.2zm7.8 4.4c.8.5 1.1 1 .5 1-.5 0-1.7-.5-2.5-1s-1-1-.5-1c.6 0 1.7.5 2.5 1zm-25 1.5c0 .8-.4 1.5-1 1.5-.5 0-1-.7-1-1.5s.5-1.5 1-1.5c.6 0 1 .7 1 1.5zm-69.5 2.5c-.3.5-1.3 1-2.1 1s-1.2-.5-.9-1c.3-.6 1.3-1 2.1-1s1.2.4.9 1zm-33.5 2.5c.7.9.8 1.5.2 1.5-.5 0-1.2-.7-1.6-1.5-.3-.8-.4-1.5-.2-1.5s.9.7 1.6 1.5zm127-.5c0 .5-.4 1-1 1-.5 0-1-.5-1-1 0-.6.5-1 1-1 .6 0 1 .4 1 1zm-78 6c0 .5-1.5 1-3.2 1-2.5 0-2.9-.3-1.8-1 2-1.3 5-1.3 5 0zm-23.5 1c.3.5-.1 1-.9 1-.9 0-1.6-.5-1.6-1 0-.6.4-1 .9-1 .6 0 1.3.4 1.6 1zm106.8-.3c-.7.2-1.9.2-2.5 0-.7-.3-.2-.5 1.2-.5s1.9.2 1.3.5zM186.5 768c.3.5-.1 1-.9 1-.9 0-1.6-.5-1.6-1 0-.6.4-1 .9-1 .6 0 1.3.4 1.6 1zm37.2-.4c-.3.3-1.2.4-1.9.1-.8-.3-.5-.6.6-.6 1.1-.1 1.7.2 1.3.5zm-43.7 3.3c0 .5-.7 1.2-1.6 1.5-2.2.9-2.4.8-2.4-.9 0-.8.9-1.5 2-1.5s2 .4 2 .9zm-30 4.1c0 .5-.9 1-2 1s-2-.5-2-1c0-.6.9-1 2-1s2 .4 2 1zm10 .2c0 .8-1.5 1.3-4 1.3-3.9.1-5.3-.8-2.7-1.8 2.5-1.1 6.7-.7 6.7.5zm55.7.4c-.3.3-1.2.4-1.9.1-.8-.3-.5-.6.6-.6 1.1-.1 1.7.2 1.3.5zm8.3.2c0 1.4-4.8 3.2-7.8 3.1-2.2-.1-2.3-.2-.5-.6 1.2-.2 2.7-1.1 3.3-1.9 1.3-1.5 5-1.9 5-.6zm-59.5 1.2c-.3.5-1 1-1.6 1-.5 0-.9-.5-.9-1 0-.6.7-1 1.6-1 .8 0 1.2.4.9 1zm112.3.2c-.2.6-1 1.4-1.6 1.6-.7.2-1-.2-.6-1.2.7-1.8 2.8-2.2 2.2-.4zm-17.4 1.9c.6.5-.4 1.1-2.2 1.5-3.1.6-4.4 2.3-1.9 2.5 1.5.1-3.2 1.7-5.6 1.8-1 .1-1.6-.3-1.2-.8.3-.5-.4-1.1-1.6-1.3-2-.3-2-.3-.2-2.4 1-1.1 2.5-2.3 3.3-2.6 1.9-.7 8.2.2 9.4 1.3zM210 781c0 .5-.4 1-1 1-.5 0-1-.5-1-1 0-.6.5-1 1-1 .6 0 1 .4 1 1zm-22 3.5c0 .1-.9.5-2 .8-1.2.3-2 0-2-.8s.8-1.1 2-.8c1.1.3 2 .7 2 .8zm14 .6c-.9 1.6-1.4 1.8-2.6.8-1.2-1-1.2-1.4-.2-2 2.6-1.7 4-1.1 2.8 1.2zm40.5.9c-2.8 1.2-4.7 1.2-4 0 .3-.6 1.8-1 3.3-.9 2.4 0 2.5.1.7.9zm-47.2 3.6c-2.9 2.4-5.3 3.1-5.3 1.5 0-1.7 5.1-5 6.7-4.4 1.2.5.9 1.1-1.4 2.9zm-62.3-1.7c0 .6-.4 1.3-1 1.6-.5.3-1-.1-1-.9 0-.9.5-1.6 1-1.6.6 0 1 .4 1 .9zm91.9 4.2c-2.2 1.3-3.1 1.1-1.7-.5.7-.8 1.7-1.2 2.2-.9.4.3.2.9-.5 1.4zM90 793c0 .5-.4 1-1 1-.5 0-1 .7-1 1.5s-.4 1.5-1 1.5c-.5 0-1 .7-1 1.6 0 1.4-.8 1.6-4.7 1-2.7-.3-4.3-.3-3.7.2 1.6 1 2.5 10.2 1 10.4-.6 0-1.5.2-2.1.3-.5.2-1.8.3-2.7.4-1.1.1-1.8.9-1.8 2.1 0 1.3-.9 2.2-2.5 2.6-1.4.3-2.5 1.2-2.5 2s-.6 1.1-1.5.8c-.8-.4-1.5-.2-1.5.4 0 .5-1.6 1.2-3.5 1.5-1.9.3-4.2 1.3-5.1 2.1-1.4 1.5-1.4 1.6.5 1.6 1.1 0 2.5.9 3.1 2 .6 1.2.7 2 .1 2-.5 0-1.6.6-2.3 1.3-.7.8-3.7 1.6-6.6 2-4.2.5-5.2.3-5.2-.8 0-2.1-3.1-1.8-3.7.3-.3 1.4-1.2 1.7-3.9 1.4-3.4-.4-3.4-.4-3.4 3.7 0 3.1.4 4.1 1.6 4.1 1.4 0 1.4.3.4 1.5-.7.8-1.9 1.5-2.6 1.5-.8 0-1.4.4-1.4.9s-1.8 1.2-4 1.6c-2.2.4-4 1.2-4 1.8 0 .7-1.7 1.2-4.4 1.2-3.1 0-4.2-.4-3.9-1.3.3-.6.9-1.2 1.5-1.2.5 0 .7-.4.4-.8-.3-.5.5-.8 1.7-.8 1.6.1 2.3-.6 2.5-2.4.4-3 2.2-5.2 2.2-2.7 0 .9.7 1.7 1.5 1.7s1.5-.6 1.5-1.4c0-.8 1.1-2.3 2.5-3.4s2.5-2.7 2.5-3.6c0-1 .9-1.6 2.4-1.6 3.5 0 5.6-1 5.6-2.6 0-1.4-.4-1.5-10.2-3.4-3.8-.8-5.8-1.6-5.8-2.6 0-1.9 1.9-1.8 2.6.1.6 1.6 5.4 2.1 5.4.6 0-.5 1.8-1.1 4-1.5 3-.5 4-1.1 4-2.5 0-1.1.6-2.2 1.3-2.5.6-.3 0-.3-1.5 0-2 .5-2.8.2-2.8-.8 0-3 4.9-4.2 16.4-4.3 6.1 0 9.2-.1 6.9-.3-2.8-.2-4.3-.8-4.3-1.7 0-.7-1.1-1.5-2.5-1.7-1.8-.2-2.2-.7-1.6-1.7 1.3-2 7.1-1.8 8.6.2 1.7 2.3 3.5 2.1 3.5-.3 0-1.5-.7-2-2.7-2.1l-2.8-.1 2.8-1.1c1.5-.6 2.7-1.6 2.7-2.1 0-.6.4-.5.9.3.5.7.5 2.9 0 4.9-.4 2-.7 3.8-.5 3.9.1.1 1.7-.3 3.4-.9 2.8-1.1 3.2-1.6 3-5-.1-2.7-.6-3.8-1.7-3.8-1.4 0-1.4-.2-.1-1 .8-.5 2.5-.7 3.6-.4 1.2.3 2.5.1 2.8-.5.4-.6 2.9-1.1 5.7-1.1 4.6 0 4.9-.2 4.9-2.5 0-1.8.5-2.5 2-2.5 1.1 0 2 .4 2 1zm27.4 2c1.6 0 2.6.6 2.6 1.4 0 1.1-.7 1.3-3 .6-4.1-1.2-5-1.9-5-3.8.1-1.6.2-1.6 1.4 0 .7 1 2.5 1.8 4 1.8zM80 794c0 .5-.5 1-1.1 1-.5 0-.7-.5-.4-1 .3-.6.8-1 1.1-1 .2 0 .4.4.4 1zm-5 2c0 .5-.7 1-1.5 1s-1.5-.5-1.5-1c0-.6.7-1 1.5-1s1.5.4 1.5 1zm30.2 1.2c-.6.6-1.6.7-2.2.3-.9-.6-.9-.9.1-1.6 1.7-1 3.4 0 2.1 1.3zm4.8 3.2c0 .3-.4.8-1 1.1-.5.3-1 .1-1-.4 0-.6.5-1.1 1-1.1.6 0 1 .2 1 .4zM90.5 809c-.3.5-1 1-1.6 1-.5 0-.9-.5-.9-1 0-.6.7-1 1.6-1 .8 0 1.2.4.9 1zm27 10c-.3.5-1.5 1-2.6 1s-1.7-.5-1.4-1c.3-.6 1.5-1 2.6-1s1.7.4 1.4 1zM96 827c0 .5-1.4 1-3.1 1-1.7 0-2.8-.4-2.4-1 .3-.6 1.7-1 3.1-1 1.3 0 2.4.4 2.4 1zm-48 8c0 1.3-.5 1.8-1.5 1.4-1.6-.7-1.9-1.7-.8-2.7 1.2-1.3 2.3-.7 2.3 1.3zm9.2 2.2c-.9.9-1.2.7-1.2-1.2s.3-2.1 1.2-1.2c.9.9.9 1.5 0 2.4zM174 835c-1.4.4-3.4.8-4.5.8-1.6 0-1.5-.2.5-.8 1.4-.4 3.4-.8 4.5-.8 1.6 0 1.5.2-.5.8zm-131.8 2.5c0 .5-.5 1.1-1.1 1.3-.6.2-1.1-.4-1.1-1.3s.5-1.5 1.1-1.3c.6.2 1.1.8 1.1 1.3zm5.8 1.9c0 1.9-1.7 2.9-3.7 2.2-1.2-.5-1.3-.9-.3-2.1 1.6-1.9 4-1.9 4-.1zm7.7.2c-.3.3-1.2.4-1.9.1-.8-.3-.5-.6.6-.6 1.1-.1 1.7.2 1.3.5zm115.3.4c0 .6-.7 1.3-1.5 1.6-.8.4-1.5 1.2-1.5 2 0 1.6-3.6 1.9-4.5.5-.6-1.1 4.2-5.1 6.1-5.1.8 0 1.4.5 1.4 1zm597 3.5c0 .8-.4 1.5-.9 1.5-1.3 0-2.2-1.6-1.4-2.4 1.1-1.1 2.3-.6 2.3.9zM8 847c0 .5-.5 1-1.1 1-.5 0-.7-.5-.4-1 .3-.6.8-1 1.1-1 .2 0 .4.4.4 1zm51.5 1c.3.6-.4 1-1.7 1-1.8 0-2-.2-.8-1 1.9-1.2 1.8-1.2 2.5 0zM952 864.9c0 .5.7 1.1 1.7 1.3 1.4.3 1.4.5.2 1.5-1.1.9-1.7.7-2.6-1.3-.6-1.3-.7-2.4-.2-2.4.5 0 .9.4.9.9zM360 867c0 .5-1.8 1-4 1s-4-.5-4-1c0-.6 1.8-1 4-1s4 .4 4 1zm610.4 4.5c.3.9-.1 1.8-.9 2.1-.8.4-1.5 1.2-1.5 1.9 0 2.9-8.8 3.3-12.1.5l-2.4-1.9 3.2-.7c1.9-.4 3-1.1 2.6-1.7-.4-.6 1-.8 4.2-.5 2.9.4 4.2.2 3.4-.3-1.1-.7-.9-.9.7-.9 1.2 0 2.5.7 2.8 1.5zM786.5 875c.3.5-.1 1-.9 1-.9 0-1.6-.5-1.6-1 0-.6.4-1 .9-1 .6 0 1.3.4 1.6 1zm-2.9 1.2c.8 1.2-2.4 4-3.7 3.2-.5-.3-.9-1.4-.9-2.5 0-2.1 3.4-2.7 4.6-.7zm-84.6.2c0 .9-3 1.4-3.5.6-.4-.6.3-1 1.4-1 1.2 0 2.1.2 2.1.4zm-263.5 7.7c.5.6.5 1.3-.3 2.1-.7.7-1.2 2.2-1.2 3.4 0 1.3-.4 2.6-1 2.9-.5.3-1 0-1-.7 0-.9-.3-.9-.8-.2-1.1 1.7-5.5 3.8-7.9 3.9-2.8.1-3.2-3.5-.7-5.9.8-.9 1.1-1.6.5-1.6-2.1 0-1.1-2.1 1.4-3 1.4-.5 2.5-1.5 2.5-2.1 0-1.3 6.9-.3 8.5 1.2zm249.9 4.4c.7.9 3 1.7 5.8 1.8 6 .4 6.8 1.2 3 3.1-3.2 1.6-6.2 1.2-11.9-1.7-2.9-1.6-3.2-1.5-5.9.8-1.6 1.4-3.6 3-4.4 3.8-6.6 5.6-15.1 7.5-15.8 3.4-.2-.9.3-1.7 1-1.7 2 0 6.8-2.3 6.8-3.3 0-.4 1.1-2 2.5-3.5 2.1-2.3 3.6-2.8 9.8-3.3 3.9-.3 7.4-.6 7.6-.7.2-.1.9.5 1.5 1.3zm253.6-.1c0 .2-.7.6-1.5 1-.8.3-1.5.1-1.5-.4 0-.6.7-1 1.5-1s1.5.2 1.5.4zm-246 11.1c0 .9-.8 1.8-1.7 2.1-1 .3-2.6 1-3.5 1.5-2.7 1.4-2.3-1.5.5-3.4 2.8-2 4.7-2.1 4.7-.2zm-20.5 3.1c-.7.8-2.1 1.4-3 1.4-1.4 0-1.4-.3.2-2.4 1.3-1.7 2.2-2.1 3-1.4 1 .8.9 1.3-.2 2.4zm288.9-1.6c3.1 1.1 3.3 3.4.7 7.7-1.4 2.1-1.6 3.3-.8 3.6 2.6.8-6.3 3.9-12.8 4.4-5.9.5-7.4.2-9.4-1.4l-2.3-1.9 2.6-5.7 2.6-5.8 6.3.2c3.5.1 7.2-.3 8.3-.9 2.3-1.4 1.8-1.4 4.8-.2zm-271.9 5c-.3.5-1.7 1-3.1 1-1.3 0-2.4-.5-2.4-1 0-.6 1.4-1 3.1-1 1.7 0 2.8.4 2.4 1zM480 914c0 1.7-.7 2-4 2-4.4 0-5.8-2.5-1.7-3.3 4.8-.9 5.7-.7 5.7 1.3zm286 0v1.7c0 .5-1 .8-2.1.8-2 0-2.2.6-2.3 7.2-.1 6.1.1 7.3 1.5 7.3 2.1 0 6.9 3.8 6.9 5.4 0 .7-1.2 2.5-2.6 4-2.2 2.1-2.4 2.9-1.4 4.1 2.6 3.2.5 4.2-10.2 5.1-5.7.5-11.5.7-12.9.6-1.4-.2-3.8.2-5.3.8-2 .7-3.2.7-4.2-.1-.7-.6-2.2-.8-3.4-.4-1.6.5-2 .2-2-1.5 0-1.3-.4-1.9-1.2-1.4-.7.5-.8.3-.4-.5.5-.7.9-4.2.9-7.9l.2-6.7 8-.3c7.1-.2 8.3-.6 10.4-2.8 1.3-1.4 3.6-3 5.2-3.6 1.6-.6 2.6-1.5 2.3-2.2-.3-.8.2-1.6 1.1-2 .9-.3 1.3-1.1.9-1.7-.5-.8.1-1 2-.7 2.9.6 3.5-.9.9-2.7-.9-.7-1.3-1.7-.9-2.3.9-1.5 8.6-1.6 8.6-.2zm-57.5 14c1.3 1.5 1.6 2.3.8 3.1-1.2 1.2-8.6 1.5-10.3.4-2-1.2-.9-3.2 2.3-4.3 4.7-1.5 5.2-1.4 7.2.8zm-31.8.1c1.5.5 3.1 1.5 3.4 2.1.5.7 1.6.6 3.5-.4 3.1-1.5 12.4-1.3 12.4.3 0 .5-.4.9-.9.9s-2.2.5-3.8 1.1c-2.7 1-2.7 1.1-.9 2.5 1.9 1.4 1.9 1.4-.2 1.4-1.2 0-2.2.5-2.2 1.1 0 .8 1.7 1 5 .7 6-.6 8.1.9 5 3.7-1.1 1-2 2.4-2 3 0 .7-.7 1.5-1.5 1.9-2.1.7-6.5-1.4-6.5-3.1 0-3-3-4.5-8.9-4.5-9.6 0-14.4 1.7-11 3.8 2 1.2-5.1 3.5-8.7 2.8-4.1-.8-6.2-3-4.6-4.6.7-.7 1.2-2.3 1.2-3.6 0-1.9-.4-2.3-2-1.9-1.6.4-2 0-2-2.2 0-1.5-.5-3.2-1.2-3.9-.9-.9-.9-1.2 0-1.2.6 0 1.5.7 2 1.6.8 1.4 1.6 1.3 8.3-.5 8.7-2.3 11.8-2.5 15.6-1zm-317.4 5.6c-.7.2-1.9.2-2.5 0-.7-.3-.2-.5 1.2-.5s1.9.2 1.3.5zm344.9 4.2c-.3 2.1-.8 2.8-1.9 2.4-.8-.3-1.2-1.2-.9-2 .3-.8.6-1.9.6-2.4s.6-.9 1.3-.9c.9 0 1.2.9.9 2.9zM653 942c0 .5-.7 1-1.5 1s-1.5-.5-1.5-1c0-.6.7-1 1.5-1s1.5.4 1.5 1zm65.9 9.1c3.7 3.6 3.7 3.9 1 6.8-1.6 1.7-2.9 2.2-4.8 1.8-1.7-.4-3.5.1-5.1 1.3-3.3 2.6-6 2.6-6 0 0-1.5-.8-2.2-2.9-2.6-1.7-.4-3.2-1.2-3.5-2-.3-.8-1.2-1.4-2.1-1.4-.8 0-1.5-.7-1.5-1.5 0-1.3 2.7-1.5 6.5-.5 1.3.4 4.5-.9 6.5-2.5 1.5-1.3 4.2-2.2 7.2-2.4.9 0 3 1.3 4.7 3zm-285.6 1.6c-1.8.7-1.6 2.1.5 2.6 1 .3.6.5-1 .6-1.7.1-2.8-.4-2.8-1.2 0-1.8 1-2.7 2.9-2.6 1 0 1.2.2.4.6zm334.5 3c.5 1.7-2.6 2.9-4 1.5-.6-.6-.7-1.5-.3-2.2.9-1.4 3.7-.9 4.3.7zm-341.5-.1c1.1 1.1-1.3 4.4-3.1 4.4-1 0-2.3.5-2.9 1.1-1.2 1.2-2.5-.2-1.5-1.7.8-1.2 5.4-4.4 6.3-4.4.3 0 .9.3 1.2.6zm353 3.4c1.7 2 1.1 2.5-1.7 1.4-1.6-.6-2.3-3.4-.8-3.4.4 0 1.5.9 2.5 2zm-86.3 2.2c0 .5-1.1.8-2.4.8-1.3 0-2.7.6-2.9 1.2-.4 1-.6 1-.6.1-.1-.7.9-2.1 2.1-3.3 2.1-1.9 3.7-1.4 3.8 1.2zm21-.3c0 .6-.4 1.3-1 1.6-.5.3-1-.1-1-.9 0-.9.5-1.6 1-1.6.6 0 1 .4 1 .9zm-62.3 3.3c3.8 1.9 4.2 2.5 4.1 5.5-.1 1.8-.4 3.3-.8 3.3s-2.1.3-3.7.6c-2.3.4-3.7 0-6.2-2.2-1.8-1.5-3.6-3.5-4-4.5-.4-1.3-1-1.6-2.1-.9-1.3.9-1.3 1.1 0 2 1.3.8 1.3 1-.1 1-.9 0-3 .7-4.5 1.5-1.6.8-4 1.5-5.3 1.5-1.8 0-2.2.4-1.8 2 .4 1.7.2 1.8-1.4.9-1.2-.6-1.9-.6-1.9 0 0 .5.6 1.1 1.3 1.4.9.3.7.9-.5 2.4-1 1.1-1.8 2.7-1.8 3.6 0 1.3-.9 1.7-3.5 1.7-3.4 0-3.5-.1-3.5-4 0-2.2.4-4 .9-4 .4 0 .8-1.2.9-2.8 0-6 0-5.9 7-7.7 3.7-1 7.4-2.2 8.2-2.6 3.2-1.6 14.4-.8 18.7 1.3zm158.3 7.7c0 1-3 2.4-3.7 1.7-.3-.3-.2-.9.2-1.5.8-1.3 3.5-1.5 3.5-.2zm-9 5.1c0 .5-.7.7-1.5.4-.8-.4-1.5-.8-1.5-1 0-.2.7-.4 1.5-.4s1.5.4 1.5 1zm-156 6c.9 1.7.7 2-1.5 2.6-2 .5-2.3.9-1.4 2 .9 1.1.7 1.4-.9 1.4-2.6 0-3.9-1.9-2.1-3.2 1.1-.8 1.1-1.1.1-1.5-1-.4-1-.8-.1-1.9 1.7-2 4.7-1.7 5.9.6zm47.5 5c0 1 1.4 1.7 4 2 3 .4 4.1 1 4.3 2.5.4 2.8-4.7 4.9-9 3.9-1.8-.4-4.1-.7-5-.5-.9.1-2.4-.9-3.3-2.3-1.5-2.3-1.5-2.7 0-5.6.9-1.7 2.1-3 2.8-2.7.7.2 1.8-.3 2.6-1.1 1.2-1.2 1.6-1.1 2.5.5.6 1 1 2.5 1.1 3.3zm-172.8 20.6c-1.6.9-3.2 1.3-3.5.9-.9-.9 1.9-2.5 4.3-2.4 1.6 0 1.5.2-.8 1.5zm94 5.1c.4.9.1 1.9-.5 2.1-.7.2-1.2 1-1.2 1.8s-1.2 1.9-2.7 2.5c-2.2.8-3 .7-4-.7-1.7-2.3-1.6-3.4.2-3.4 2.5 0 3-.2 4.3-2.1 1.6-2.4 3.1-2.4 3.9-.2zm-243.2 25.9c-1.1.8-1.4 2-1 3.7.5 2 1.5 2.7 4.6 3.2 3.5.6 5.6 2.5 2.8 2.5-.7 0-.9 1-.7 2.4.3 1.6.1 2.3-.7 2-.6-.3-1.8.2-2.5 1.1-.8 1-.9 1.5-.1 1.5.6 0 1.1.4 1.1 1 0 .5-1.1 1-2.5 1s-2.5.4-2.5.9-1.3 1.2-2.9 1.6c-3.4.7-5.1 3.5-2.1 3.5 1.8 0 1.8.2.3 4.5l-1.5 4.5H352v-3.5c0-3.8-1.3-4.4-4-2-1 .9-3.4 1.9-5.4 2.2-3.4.5-3.6.4-3.8-2.3-.2-5 .2-7.7 2.3-14.1 1.6-4.8 2.4-6.1 3.6-5.6 1.1.4 1.4.2 1.1-.8-.3-1 1.2-1.9 5.1-3.1 3.1-1 6.4-1.8 7.4-1.8.9 0 1.7-.4 1.7-.8 0-1.1 6-2.9 9.3-2.8 2.4 0 2.6.2 1.2 1.2zm214 12.6c3 1.3 3.3 4.7.7 6.9-2.3 2-9.2 3.4-9.2 2 0-.6-.6-.8-1.3-.5-1.7.6-3.9-1.8-2.9-3.1.4-.6 2-1.7 3.6-2.5s3.1-2 3.3-2.7c.6-1.6 2.5-1.6 5.8-.1zm-172.5 6.2c0 .3-.4.8-1 1.1-.5.3-1 .1-1-.4 0-.6.5-1.1 1-1.1.6 0 1 .2 1 .4zm-23.1 4.5c1.9 1.2.6 4.1-1.8 4.1-2.3 0-3.5-1.5-2.7-3.5.6-1.7 2.4-1.9 4.5-.6zm-6.9 5.6c0 .8-.7 1.5-1.5 1.5s-1.5-.7-1.5-1.5.7-1.5 1.5-1.5 1.5.7 1.5 1.5zm1.5 4.5c-.3.5-1.3 1-2.1 1s-1.2-.5-.9-1c.3-.6 1.3-1 2.1-1s1.2.4.9 1zm118.5 3.4c0 .3-.4.8-1 1.1-.5.3-1 .1-1-.4 0-.6.5-1.1 1-1.1.6 0 1 .2 1 .4z"/><path d="M46.2 825.8c.3 1.3 1.3 1.6 4.8 1.3 7.2-.5 7.1-1.6-.3-2.3-4-.5-4.8-.3-4.5 1zM757.2 921.7c-1.5.6-.6 2.3 1.4 2.3.8 0 1.4-.7 1.4-1.5 0-1.5-.6-1.7-2.8-.8zM700.5 956c-.3.5-.1 1 .4 1 .6 0 1.1-.5 1.1-1 0-.6-.2-1-.4-1-.3 0-.8.4-1.1 1zM360 1058.4c0 1.9.4 2.4 1.5 1.9 1.8-.6 1.6-3.4-.2-4.1-.8-.2-1.3.6-1.3 2.2zM868.4 366.8c-1.7 1.5-9.2 3.5-10.8 2.9-1-.4-1.6-.1-1.6.7 0 .7-1.7 1.7-3.7 2.4l-3.8 1.1 4.2-.2c2.3-.1 4.1.2 4 .8-.1.5.7 1.1 1.8 1.3 1.9.2 12.3-8.3 11.3-9.3-.2-.3-.9-.1-1.4.3zM872.8 366.7c.7.3 1.6.2 1.9-.1.4-.3-.2-.6-1.3-.5-1.1 0-1.4.3-.6.6zM659.6 397.4c-1.9.9-2.4 1.5-1.4 1.8.7.3 2.4-.3 3.7-1.3 2.6-2.2 1.9-2.3-2.3-.5zM626.8 415.7c.7.3 1.6.2 1.9-.1.4-.3-.2-.6-1.3-.5-1.1 0-1.4.3-.6.6zM618 421.7c.1 1.8 1.8 3.5 2.4 2.4.4-.6.4-1.6.1-2.1-.7-1.2-2.5-1.3-2.5-.3zM609 423c.8.5 2.9.9 4.5.9 2.9-.1 2.9-.1.5-.9-1.4-.4-3.4-.8-4.5-.9-1.6-.1-1.7.1-.5.9zM599.2 426c-1 1.7-.9 2 1.1 2.5 2.7.7 8.4-1.2 7.1-2.4-.5-.5-2.3-1.1-4-1.4-2.3-.4-3.3-.1-4.2 1.3zM609 426.5c0 .8-.9 2.4-2 3.5-1.6 1.6-1.7 2-.5 2 .8 0 1.5-.5 1.5-1 0-.6.7-1 1.5-1 .7 0 1.8-.6 2.2-1.3.4-.8 1.7-1.9 2.8-2.5 1.8-1 1.6-1.1-1.7-1.2-2.7 0-3.8.4-3.8 1.5zM592.6 430.6c-2.2.8-4.7 2.1-5.6 2.9-.9.8-3.2 1.5-5.2 1.5-3.9 0-13.9 3.2-17.6 5.6-2.6 1.7-6.8 1.5-6.4-.4.3-1.8-1.2-1.5-6.4 1.3-2.6 1.4-5.8 2.5-7.1 2.5-1.4 0-3.1.7-3.9 1.5-.9.8-2.7 1.5-4.2 1.6-2.4 0-2.5.1-.7.9 2 .8 1.9.9-.1.9-1.2.1-2.7.8-3.4 1.6-.7.8-1.8 1.5-2.5 1.5s-1.8.7-2.5 1.5-2.2 1.5-3.4 1.6c-1.1 0-1.5.3-.8.6 1.9.7.4 2.3-2.3 2.3-2.2 0-7.4 1.8-8.5 3-1.1 1.2-5.1 3-6.5 3-.8 0-1.5.5-1.5 1 0 .6-1.1 1.5-2.5 2s-2.5 1.4-2.5 1.9c0 .6-1.6 1.3-3.5 1.7-4.4.8-5 1.7-2.5 3.9 1.9 1.7 2.1 1.7 4 0 1.1-1 2-2.4 2-3.2 0-1.6 1.2-1.7 2.9-.1 1.1 1 1.4 1 1.8 0 .3-.6 1.3-1.2 2.4-1.2 2.1 0 5.9-3.3 5.9-5.2 0-3.2 1.7 1.4 1.9 5.2.2 2.4 2.1-1 2.1-3.8 0-1.3.6-2.2 1.5-2.2 1 0 1.5 1 1.5 3.2.1 2.7.2 3 1.1 1.5.5-.9 1.7-1.7 2.4-1.7.8 0 1.5-.6 1.5-1.4 0-1.5 3.5-2.1 19.8-3.4 5.1-.4 9.6-.4 10 0 .4.4 2.8-.3 5.4-1.5 4.1-2 4.5-2.4 3-3.4s-1.3-1.2 1.3-1.4c1.7-.1 3.5-.3 4-.4.6-.2 1.4-.3 1.9-.4.5 0 .3-.8-.4-1.6-1-1.2-.9-1.6.3-2.1.8-.3 2.1-.4 2.8-.3.8.1 2.5-.2 3.9-.8 1.4-.6 3.2-1.3 4-1.6 1-.4 1.1-.6.2-.6-2-.1-.3-2.1 1.7-2.1 1 0 2.4-.7 3.1-1.5.7-.8 2.1-1.5 3.2-1.5 1 0 2.1-.7 2.4-1.5.4-.8 1-1.3 1.4-1 .4.3 1.9-.4 3.3-1.5s2.9-2 3.4-2 2-1.2 3.2-2.6c2.1-2.4 2.1-2.5.3-2-1.4.5-2.1.1-2.5-1.4-.6-2.3-1.7-2.4-7.1-.4zM558 457.5c1.4.8 1.9 1.4 1 1.4-.8 0-2.4-.6-3.4-1.4-2.5-1.9-.9-1.9 2.4 0zM766.3 430.7c-.7.2-1.3.9-1.3 1.4 0 1.2 3.7.6 5.2-.9.9-.9.8-1.2-.7-1.1-1.1 0-2.6.3-3.2.6z"/><path d="M561.1 436c-3 2.6-1.4 2.6 1.9 0 1.4-1.1 2.1-2 1.5-1.9-.5 0-2.1.9-3.4 1.9zM837.6 447.5c-1.5 2.4-1.5 2.5.2 2.5 2.1 0 4.2-1.8 4.2-3.7 0-2.2-2.7-1.5-4.4 1.2zM536 466c0 1.5-.7 2-2.5 2-1.4 0-2.4-.5-2.2-1.1.1-.6-.6-1.3-1.5-1.4-1-.2-1.8.2-1.8.7 0 .6.8 1.7 1.8 2.4 1.6 1.2 1.5 1.3-.5 1.4-1.3 0-2.3.4-2.3 1 0 .5-.8 1-1.7 1-1 .1-3.5 2.3-5.7 5-3.3 4.3-4.1 4.7-5.7 3.7-1.5-.9-2.4-.9-3.9.1-1.1.6-2.9 1.2-4 1.2-2.3 0-2.7 2.5-.5 3.4.8.3 2.7.1 4.2-.5 1.5-.5 3.7-.8 4.9-.5 1.3.4 2.7 0 3.4-.9.7-.8 1.6-1.2 2.2-.9.5.3.6-.5.3-1.9-.6-2.3-.3-2.5 3.9-3.1 3-.5 4.6-1.2 4.6-2.2 0-.8.8-1.4 1.9-1.4 1 0 3.2-.7 4.7-1.5 1.6-.8 2.3-1.5 1.7-1.5-.7 0-1.3-.5-1.3-1 0-.6 1-.8 2.4-.4 3.2.8 9.7-2.3 8.9-4.2-.3-1-2.2-1.4-5.9-1.4-4.7 0-5.4.2-5.4 2zM485.9 474.8c-2 .4-4.5 5.2-2.6 5.2 2-.1 4.9-2.7 4.5-4.2-.1-.7-1-1.2-1.9-1zM465.5 487.5c-1.1 1.4-3.2 3-4.7 3.6-1.5.6-2.6 1.5-2.3 1.9.3.4-1.4.7-3.8.7-3.6 0-8.2.7-8.2 1.3 0 .1-1.8.4-4 .6-2.2.2-5.6 1.2-7.5 2.2-4 2-8.6 6.2-6.8 6.2.7 0 .5.7-.5 1.8-.8.9-2 3-2.6 4.5-.7 1.9-2 2.9-4.1 3.3-3.8.8-3.9 2.4-.2 2.4 1.6 0 3.2-.8 4-2 .9-1.5 2.3-2 5.2-2 2.1 0 5.1-.6 6.6-1.2 2.2-1 2.8-1 3.2 0 .5 1.6 4.2 1.6 4.2-.1 0-2.3 12.3-6.6 13.5-4.7.9 1.5 3.4 1.2 5.1-.5 1.8-1.7 4.4-2 4.4-.5 0 .6-.7 1.3-1.5 1.6-.8.4-1.5 1.2-1.5 2s-.7 1.4-1.5 1.4c-.9 0-2.7.7-4 1.6-3 2-3.4 5.4-.5 5.4 2.1 0 4.4-3.2 3.2-4.5-.4-.4.2-.6 1.3-.5 3.9.4 5.5 0 5.5-1.5 0-.9 1.3-1.8 3.1-2.2 1.9-.3 3.4-1.4 3.6-2.5.5-1.5 2.8-2.4 5.6-1.9.4.1 1-.6 1.3-1.4.4-.9 1.9-1.5 3.5-1.5s2.9-.5 2.9-1.1c0-1.3 2.5-3.9 3.7-3.9 2.5 0 6.4-2.8 7.2-5.3.6-1.5 1.5-2.7 2-2.7.6 0 1.1-.5 1.1-1 0-1.5-3-1.2-4.7.6-1 1-1.8 1.2-2.2.5-.5-.7-1.6-.5-3.6.5-1.9 1-3.1 1.1-3.5.4-1-1.6-14.9-1.8-15.8-.3-.4.7-1.7 1-3 .6-1.7-.4-2.1-1.1-1.7-2.4.8-2.5.4-2.3-2 .6zM506.6 490.9c-1.6 1.7-2.7 3.3-2.5 3.5.9.9 6.2-4 5.8-5.3-.3-.7-1.5-.1-3.3 1.8zM499.8 495.7c-1 .2-1.8.9-1.8 1.4 0 .5-.6.9-1.4.9-.7 0-1.9.7-2.6 1.5-1 1.2-1 1.5.3 1.5.8 0 2-.7 2.7-1.5.7-.8 1.8-1.5 2.5-1.5s1.8-.7 2.5-1.5c1.3-1.5.9-1.6-2.2-.8z"/><path d="M450.1 516.3c-.6.8-.8 1.7-.4 2 .3.4-.8 1-2.5 1.3-1.8.4-3.2 1.3-3.2 2.1 0 2.3-4.3 3.4-5.8 1.5-1.2-1.6-1.4-1.6-2.8.2-.8 1.1-1.4 2.5-1.4 3.2 0 1.5-2.3 2.4-6.6 2.4-1.9 0-3.4.4-3.4 1 0 .5 1.8 1 4 1s4-.5 4-1c0-.6 1-1 2.3-.9 1.7 0 1.4.5-1.8 2-2.2 1-4.9 1.9-6 1.9-1.1.1-3.3.7-5 1.5-3 1.5-2.9 1.5 1.9.9 4.5-.5 4.9-.4 3.7 1-.9 1-2.9 1.6-5.8 1.6-4.6 0-8.3 1.4-8.3 3 0 .6.7 1 1.5 1s1.5.4 1.5 1c0 .5-.9 1-2 1s-2 .4-2 1c0 1.4-3.8 1.2-4.3-.3-.3-.8-1.3-.4-3.1 1.2-1.4 1.4-2.6 2.8-2.6 3.2 0 1.2 6.7 2.2 8.2 1.2.7-.4 2.7-.8 4.3-.9 2.6-.1 3-.4 2.7-2.6-.3-2.8 2.2-5.5 5.8-6.1 3.4-.7 8-2.8 7.6-3.6-.2-.3.2-1.2 1-1.8.8-.8 1.5-.9 1.9-.3 1 1.7 4.5-.9 6-4.3.8-1.8 1.4-2.6 1.5-2 0 2.3 3 1.4 4-1.2.5-1.4 1.4-2.5 2-2.5.5 0 1-.9 1-2 0-2.1 3.5-2.9 4.2-.9.2.6 1.1.2 2.1-.8 1.5-1.7 1.5-2.1.1-4.1-1.8-2.5-2.7-2.7-4.3-.9zM410.3 518.8c-1.2 1.2-1.8 1.3-2.1.4-.6-2-3-1.4-3.8 1-.7 2.4 2.5 5.9 5.5 5.7 1.4-.1 1.3-.2-.1-.6-2.2-.5-2.4-3.3-.3-3.3.8 0 1.5-.4 1.5-.9 0-.6 1.7-1.1 3.8-1.3l3.7-.3-3.2-1.2c-2.8-1-3.5-.9-5 .5zM399 527c-1 .6-1.1 1-.2 1 .7 0 1.2 1.3 1.2 3 0 1.6.5 3 1.1 3 .6 0 .8-.7.5-1.6-.4-1.2-.2-1.5.9-1 .8.3 1.5.2 1.5-.3s1-1.2 2.3-1.6c2.2-.8 2.2-.8-.3-1.2-1.4-.3-2.9-.9-3.4-1.4-1.2-1.1-1.7-1.1-3.6.1zM1030.2 531.1c-7 .9-15.5 4.9-12.6 5.9 1.5.6 1.5.8.3 1.6-1 .6-.2 1.1 3.1 1.7 5.7 1.1 19 2 19 1.3 0-.2-.4-1.6-.9-2.9-.8-2.1-.6-2.6 1.6-3.6l2.6-1.2-2.1-1.9c-1.2-1.1-2.7-1.9-3.4-1.9-.7.1-4.1.5-7.6 1zM1067.3 534.8c-1.8.9-3.3 2.3-3.3 3 0 .7-.5 1-1 .7-.6-.4-2.2 0-3.5.9-1.7 1.1-4.7 1.6-9.7 1.6h-7.2l2.9 3c1.6 1.6 3.4 3 4.1 3 .6 0 1.7.6 2.3 1.4.9 1.1.6 1.8-1.4 3.4-1.4 1.1-2.5 2.9-2.5 4 0 1.2-.9 2.3-2.2 2.8-2.1.6-2.1.7.8 2.2 1.6.8 3.3 2.1 3.7 2.8.4.8 1.8 1.4 3 1.4s3.5.7 5.1 1.5c1.5.8 3.5 1.5 4.2 1.5.8 0 1.4.5 1.4 1.1 0 .5.5.7 1.2.3.7-.4 3-.7 5.1-.5 3 .1 4.3-.3 5.4-1.9.8-1.1 2.1-2 2.9-2 1 0 1.4-1.3 1.4-5.1v-5.2l-3.7.6c-2 .4-4.2.3-4.7-.2-.6-.4-3-1.3-5.3-2.1-2.3-.7-4.5-2-4.8-2.8-1.2-3.1 7.6-8.2 14.1-8.2 4 0 4.4-.2 4.4-2.4 0-1.8-1-2.9-4-4.5-4.7-2.5-4.6-2.4-8.7-.3zm-7.4 24.8c.2.2-1.2.4-3.3.4-2.2 0-3.5-.4-3.1-1 .5-.9 5.2-.4 6.4.6zM400 536.1c0 .5.5.7 1 .4.6-.3 1-.8 1-1.1 0-.2-.4-.4-1-.4-.5 0-1 .5-1 1.1zM392 545c0 .5.4 1 .9 1 .6 0 1.3-.5 1.6-1 .3-.6-.1-1-.9-1-.9 0-1.6.4-1.6 1zM386.4 547.1c-1 1.7 1.3 3.6 2.7 2.2 1.2-1.2.4-3.3-1.1-3.3-.5 0-1.2.5-1.6 1.1zM392 551c0 .5-1.1 1-2.5 1-1.5 0-2.5.6-2.5 1.5 0 1.8-2.2 2.9-9 4.5-3 .7-6.4 2.2-7.5 3.4l-2 2-.5-2.5-.5-2.6-3.1 3.3c-1.7 1.9-2.6 3.5-2 3.8.6.2-1.5.5-4.7.5-5.4.1-5.8.3-5.2 2.1.6 1.8.2 2-3.9 2-2.5 0-4.6-.5-4.6-1 0-1.6-2.7-1.2-3.4.5-.3.8-1.2 1.5-2 1.5s-1.9.7-2.4 1.6c-.5.8-2.3 1.8-4.2 2-1.8.3-3.9 1.2-4.6 1.9-.8.7-2.7 1.6-4.4 2-1.6.4-3 1-3 1.4 0 .4-2.4 1.6-5.4 2.6-3.6 1.2-5.6 2.5-6 3.8-.4 1.5-1.1 1.8-3 1.5-1.6-.3-2.7 0-3 .9-.4.9-1.3 1.2-2.6.8-1.8-.6-2.5.2-2.2 2.6.1.8-6.1 3.2-14 5.4-5.8 1.7-8.1 3.3-7.6 5.6.2.9-.8 1.5-2.7 1.7-4.4.4-12.5 3.2-12.5 4.3 0 .5-1.1 1.4-2.5 1.9s-2.5 1.5-2.5 2.1c0 .6-.9.9-2 .6-2.9-.7-3.6 1.1-.8 2.2 2.2.9 2.2 1 .2 1-1.1.1-2.9 1-3.9 2.1-1.2 1.3-3.1 2-5.7 2-4 0-5.5 2.4-2 3.3 1.6.4 1.6.5 0 .6-1.1.1-1.8.9-1.8 2.1 0 2.3 2.5 2.7 3.4.5.3-.8 1.5-1.5 2.6-1.5 1.4 0 2-.7 2-2.4 0-1.9.4-2.3 1.9-1.9 2.7.7 6.1-1.4 6.1-3.7 0-1.6.7-2 3.3-2.2 4.4-.2 5-.1 6.7.6 1.1.5 1.6.1 1.6-1.4 0-1.3-.7-2-2.1-2-1.9-.1-1.9-.1-.2-1.1 1.4-.8 2.2-.8 3 0 1.4 1.4 4.3 1.4 6.8 0 1.6-.8 1.8-1.3.8-2.5s-.4-1.4 4-1.4c3.9 0 5.1-.4 5.1-1.5 0-1.4 1.2-2 3.4-1.6 1.5.3 3.7-2.2 3.2-3.6-.4-.8.3-1.3 1.8-1.3 1.4 0 2.6.5 2.8 1 .2.6 1.4.1 2.8-1.2 1.3-1.3 4.7-2.9 7.4-3.6 2.7-.7 5.6-2.1 6.5-3.1 1.1-1.3 2.8-1.9 5-1.7 1.9.1 3.5-.3 3.8-1 .2-.7 1.1-1 1.9-.7.8.3 2.3-.5 3.5-1.8 1.1-1.3 1.8-1.8 1.4-1.2-.4.9-.1 1.1.9.7.9-.3 1.6-1.2 1.6-2s.5-1.4 1-1.4c.6 0 1 .5 1 1.1 0 .6 1.3-.1 3-1.4 1.6-1.4 4-2.9 5.2-3.3 1.3-.4 2.6-1.2 3-1.8.4-.6 3.3-1.1 6.5-1.1 5.9-.1 8.9-1.1 11.3-3.9.7-.9 2.7-1.6 4.5-1.6 2 0 3.9-.8 5.1-2.1 1-1.1 2.6-1.8 3.5-1.6 1.1.3 1.6 0 1.3-.7-.5-1.2 4.8-3.6 7.9-3.6.9 0 1.7-.4 1.7-1 0-.5 1.2-1.3 2.7-1.6 1.5-.4 4.2-1.8 6.1-3.1 1.9-1.2 3.9-2.3 4.3-2.3.5 0 .9-1.4.9-3 0-2.8-.2-3-4-3-2.2 0-4 .4-4 1zm-31 17.4c0 .3-.4.8-1 1.1-.5.3-1 .1-1-.4 0-.6.5-1.1 1-1.1.6 0 1 .2 1 .4zm-23.5 9.6c.3.5.1 1-.4 1-.6 0-1.1-.5-1.1-1 0-.6.2-1 .4-1 .3 0 .8.4 1.1 1zm-22 7c-.3.5-1.3 1-2.1 1s-1.4-.5-1.4-1c0-.6.9-1 2.1-1 1.1 0 1.7.4 1.4 1zm6.5 2c0 .5-.4 1-1 1-.5 0-1-.5-1-1 0-.6.5-1 1-1 .6 0 1 .4 1 1zM403.8 552.7c1.2.2 3.2.2 4.5 0 1.2-.2.2-.4-2.3-.4s-3.5.2-2.2.4zM596 558.5c0 .8.2 1.5.4 1.5s.6-.7 1-1.5c.3-.8.1-1.5-.4-1.5-.6 0-1 .7-1 1.5zM589.7 569.6c-.8.8.1 2.4 1.4 2.4.5 0 .9-.7.9-1.5 0-1.5-1.2-2-2.3-.9zM834 570l-2.5.8 2.8.1c1.5.1 2.7-.4 2.7-.9 0-.6-.1-1-.2-.9-.2.1-1.4.5-2.8.9zM592 574c0 .5-.4 1-1 1-.5 0-2.4 1.6-4.3 3.5s-4.1 3.5-5.1 3.5c-.9 0-1.6.4-1.6 1 0 .5-.9 1-2 1-2.9 0-2.5 1.8.5 2.6 1.9.5 3.6-.1 6.6-2.2 2.3-1.6 5.4-3.6 7-4.4 3-1.5 4.5-4.2 3.4-6-.8-1.3-3.5-1.3-3.5 0zM608 575c0 .5.7 1 1.5 1s1.5-.5 1.5-1c0-.6-.7-1-1.5-1s-1.5.4-1.5 1zM1032 588c0 .5 1.2 1 2.8.9 2.4 0 2.5-.1.7-.9-2.7-1.2-3.5-1.2-3.5 0zM1020.1 589.1c-1.9.7-2.2 1.2-1.2 2.2 1.3 1.3 4.2 0 4.9-2.1.4-1.4-.4-1.4-3.7-.1zM1041.5 589.8c-2.7.9-5.6 2.2-6.3 2.9-.7.7-1.8 1.3-2.3 1.3-.5 0-.9.4-.9 1 0 1.5 4.6 1.2 6-.5.6-.8 1.5-1.4 1.8-1.3.4.1 3.1-.2 6-.6 4.2-.6 5.2-1.2 5-2.5-.4-2.2-3.3-2.3-9.3-.3zM591.1 590.5l-3.4 1.2 2.7.5c3.5.7 6.8-.1 6.3-1.5-.5-1.6-1.8-1.6-5.6-.2zM579.2 592.7c.2 1 1.3 1.9 2.6 2.1 2.6.4 2.8-.6.5-2.4-2.5-1.8-3.5-1.7-3.1.3zM834 593.7c-2.7 1-6.9 5.5-6.3 6.9.6 1.6 3.9 1.9 4.8.4.3-.6 1.7-1 2.9-1 1.8 0 2.5-.7 2.9-2.7.7-3.5-.9-4.8-4.3-3.6zM563.5 597c-.3.5-.1 1 .4 1 .6 0 1.1-.5 1.1-1 0-.6-.2-1-.4-1-.3 0-.8.4-1.1 1zM550 599l-2.5.8 2.5.2c1.4.1 1.9.4 1.3.7-1.4.5-1.8 2.3-.5 2.3.4-.1 2.1-1.2 3.7-2.5l3-2.5-2.5.1c-1.4.1-3.6.5-5 .9zM577.3 598.7c-.7.2-1.3 1.2-1.3 2.1 0 1.2.3 1.3 1.2.4.7-.7 2.1-1.2 3.3-1.2 1.6 0 1.7-.2.5-1-1.6-1.1-1.9-1.1-3.7-.3zM963 600.8c0 .5 1.1 1.9 2.4 3.1 3 2.8 4.5 1 1.6-1.9-2.1-2.1-4-2.6-4-1.2zM332 604c0 .5.7 1 1.6 1 .8 0 1.2-.5.9-1-.3-.6-1-1-1.6-1-.5 0-.9.4-.9 1zM541.5 605c-.3.5-1.7 1-3 1s-2.5.3-2.7.7c-.3.7-2 1.6-13.8 7.1l-4.5 2.1h3.9c6.8.1 16.6-3.2 16.6-5.6 0-.7 1.8-2 4-2.9 2.2-.9 4-2 4-2.5 0-1.2-3.7-1.1-4.5.1zM433.7 606.6c-.4.4-2.1.8-3.9 1-4.6.4-9.9 2.6-7.5 3.1 4.5 1.1.4 3.8-7.5 4.8-4.7.6-5.9 1.7-3.6 3.1.6.4 1.6 0 2.3-.9 1.5-2.1 5.8-2.2 7.5-.2.7.8 1.6 1.5 2.1 1.5 1.7 0 .9-3-.8-3-1-.1-.3-.7 1.5-1.5 1.9-.8 3.6-2.4 3.9-3.5.4-1.3 1.1-1.9 2-1.6 1.3.5 7.3-1.9 7.3-2.9 0-.7-2.6-.6-3.3.1zM439 608.5c-2.1 2.5-.3 2.9 3.2.6l3.3-2.1h-2.6c-1.5 0-3.2.7-3.9 1.5zM979.4 612.2c-.3.4.1.8.9.8.9 0 3.3 1.5 5.6 3.4 3.9 3.3 4.4 3.4 10.8 3.1 3.8-.2 7.8-.4 9.1-.4 1.6-.1 2.2-.7 2.2-2.5 0-1.5.7-2.6 2-2.9 1.1-.3 2-1 2-1.6 0-1.4-31.8-1.3-32.6.1zM394.5 617c-.3.5.1 1 .9 1 .9 0 1.6-.5 1.6-1 0-.6-.4-1-.9-1-.6 0-1.3.4-1.6 1zM501 617.5c0 .8.7 1.5 1.5 1.5s1.5-.7 1.5-1.5-.7-1.5-1.5-1.5-1.5.7-1.5 1.5zM1018.7 620c.3 1.2 0 2-.7 2-.6 0-2.5 1.3-4.2 3-1.6 1.6-3.4 3-3.9 3-.6 0-2.1 1.1-3.5 2.5s-4.5 3-6.9 3.6c-2.6.7-4.5 1.7-4.5 2.5s-.6 1.4-1.4 1.4c-.8 0-1.6.6-1.9 1.4-.3.8-3.1 2.3-6.1 3.5-4.3 1.6-6.2 1.8-8.2 1.1-1.9-.8-3.3-.6-5.2.4-1.5.8-4.8 1.8-7.4 2.1-2.7.3-4.9 1.2-5.2 2-.3.9-1.9 1.5-4.2 1.5-2 0-6.3.7-9.7 1.6-4.2 1.1-7.9 1.3-11.9.9-3.8-.5-5.8-.3-5.8.3s.4 1.4 1 1.7c.6.4.4 2-.5 4.3-3.5 8.3-2.2 16.2 2.4 14.7 1.2-.3 2.1-1.3 2.1-2.1 0-1.7 2.1-1.9 3.7-.3 2 2-.8 5.9-4.2 5.9-1.6 0-4.1.3-5.4.7-2 .5-2.2.3-1.6-1.6.5-1.7.2-2.1-1.5-2.1s-2 .4-1.5 2 .2 2-1.7 2c-2.5.1-5.8 2.1-5.8 3.8 0 .5-.7 1.2-1.5 1.6-2.3.9-1.8 2.2 1.4 3.6 2.3.9 3.9.8 8.1-.4 2.9-.9 5.7-1.3 6.2-1 1.7 1.1 5.7-.6 6.3-2.6.8-2.5 2.1-2.5 7.9.1 3.5 1.5 6.3 2 11.3 1.7l6.6-.3 7.4-7c4.1-3.9 8.5-7.5 9.7-8.2 1.2-.7 6-1.2 11.2-1.3 7.6 0 9.6-.3 11.7-2 1.4-1.1 4-2 5.9-2 5-.1 19.8 4.2 19.8 5.7 0 .7-.5 1.3-1.2 1.3-.6 0-.8.3-.5.7.4.3.2 1.2-.3 1.8-1.3 1.5.2 2.8 4.9 4.4 4 1.3 18.1 1.5 18.1.2s-7.2-4.9-8.7-4.4c-.7.3-1.7-.6-2.2-1.9-.5-1.3-1.8-3.2-3-4.2-1.1-1.1-2.1-2.5-2.1-3.1 0-.7-1.9-1.6-4.4-1.9-2.4-.4-5-1.4-5.6-2.1-.7-.8-2.9-1.5-5-1.5-2.3 0-4-.5-4.3-1.4-.8-1.9 3.1-5.3 7.2-6.3 4.7-1.2 4.7-3.6 0-7.4-2.5-2-3.9-3.9-3.9-5.4 0-1.3-.6-2.6-1.2-2.9-1-.5-1-.7 0-1.2.6-.3 1.2-1.6 1.2-2.8 0-2.2 3.4-4.6 6.5-4.6 1.8 0 3-3.9 1.7-5.2-.6-.6-.8-1.7-.5-2.4.4-1-.4-1.4-2.5-1.4-2.5 0-2.9.3-2.5 2zM473.5 621.4c-1.6 1.4-3.8 2.5-4.8 2.6-1 0-1.5.4-1.2 1 1 1.5 9.2 1.2 10.8-.5.8-.8 1.7-1.2 2-.9.3.3 1-.4 1.7-1.5.8-1.6.8-2.1-.2-2.1-.7 0-2.2-.3-3.3-.5-1.2-.4-3.1.4-5 1.9zM496 620.6c0 1.7 2.2 1.4 2.8-.4.2-.7-.3-1.2-1.2-1.2-.9 0-1.6.7-1.6 1.6zM405.2 620.7c-.6.2-1 .9-.7 1.3.7 1.1 3.5.2 3.5-1.1 0-1-.8-1-2.8-.2zM814.6 621.9c-1.6 1.8-1.5 1.9 1.9 2.5 4.5.9 5.8.1 4.5-2.5-1.3-2.4-4.2-2.4-6.4 0zM232.4 626.2c.2 2.9.1 3.6-.1 1.5-.4-3.5-.6-3.7-3.9-3.7-2.8 0-4.4.9-8.1 4.7l-4.7 4.6 4.2-.7c5.4-.8 5.5.9.2 2.5-2.3.7-4 1.8-4 2.7 0 1 .6 1.2 1.8.7.9-.4 3.1-1.1 4.9-1.6 3.8-1.1 5.1-2.8 3.2-4-2.1-1.3.5-1.1 3.6.3 2.1.9 3.1.9 4.6 0 1-.7 2.6-1.2 3.4-1.2 1.1 0 1.5-1.1 1.5-4 0-2.8-.4-4-1.4-4-.8 0-1.6-.7-2-1.5-.3-.8-1.2-1.5-2-1.5-1.1 0-1.4 1.2-1.2 5.2zM411.2 625.1c-3 1.1-5.6 3.8-4.8 4.7.4.3 1 .1 1.4-.5.4-.6 2.2-1.4 4.1-1.8 1.9-.4 4.1-1.4 4.9-2.1 1.1-1.2 1-1.4-1-1.3-1.3 0-3.3.4-4.6 1zM480 626.9c0 .5-1 1.2-2.2 1.5-2.2.7-2.2.7-.3 1.5 1.1.5 2.2.5 2.5.1.3-.3 1.3-.9 2.3-1.3 1-.4 1.5-1.1 1.2-1.7-.8-1.2-3.5-1.3-3.5-.1zM249 630c-2.4 1.5-.7 1.9 2.5.5 2.3-1 2.5-1.4 1-1.4-1.1 0-2.7.3-3.5.9zM500.7 629.7c-1.4 1.3-.6 2.4 1.5 2.1 2.7-.4 3.6-2.8 1.1-2.8-1.1 0-2.3.3-2.6.7zM381.1 631.4l-2.4 1.3 2.4 2.4c2 2 2.4 2.1 2.7.7.2-.9 1.3-1.9 2.5-2.3 5.6-1.9 6.1-2.5 2-2-2.3.3-4.3.1-4.5-.4-.2-.5-1.4-.4-2.7.3zM181.5 632c-.3.5.1 1 .9 1 .9 0 1.6-.5 1.6-1 0-.6-.4-1-.9-1-.6 0-1.3.4-1.6 1zM208.8 631.7c.6.2 1.8.2 2.5 0 .6-.3.1-.5-1.3-.5-1.4 0-1.9.2-1.2.5zM400 632c0 .5.7.7 1.5.4.8-.4 1.5-.8 1.5-1 0-.2-.7-.4-1.5-.4s-1.5.4-1.5 1zM422.7 631.7c-1 .3-1.6 1-1.4 1.6.5 1.5 5.2 1 8.6-.8 2.6-1.4 2.6-1.4-1.4-1.3-2.2 0-4.8.2-5.8.5zM495.1 636.2c0 2.4.3 3.8.5 3.2.3-.6 2.7-.9 6.3-.6 4.7.3 5.9.1 6.4-1.2s0-1.6-2.7-1.6c-1.8 0-4.8-.3-6.5-.6-2.5-.5-2.9-.9-2-2 .9-1.1.8-1.4-.5-1.4-1.2 0-1.6 1-1.5 4.2zM392 635.5c0 1.9 1.1 1.9 3.6 0 1.8-1.4 1.8-1.4-.8-1.5-1.8 0-2.8.5-2.8 1.5zM175.5 636c-.4.6.5 1 1.9 1s2.6-.5 2.6-1c0-.6-.9-1-1.9-1-1.1 0-2.3.4-2.6 1zM205 638c0 1.1.7 2 1.5 2s1.5-.9 1.5-2-.7-2-1.5-2-1.5.9-1.5 2zM360 637.1c0 .5.5.7 1 .4.6-.3 1-.8 1-1.1 0-.2-.4-.4-1-.4-.5 0-1 .5-1 1.1zM231.6 638.7c-.6 1.4-.5 1.5.5.6.7-.7 1-1.5.7-1.8-.3-.3-.9.2-1.2 1.2zM485.8 639.7c.7.3 1.6.2 1.9-.1.4-.3-.2-.6-1.3-.5-1.1 0-1.4.3-.6.6zM192 640.8c0 .5 1.4.7 3 .4 1.7-.2 3-.6 3-.8 0-.2-1.3-.4-3-.4-1.6 0-3 .4-3 .8zM209.6 641.5c-1.1.8-1.5 1.5-1 1.5.6 0 1.9-.7 3-1.5 1-.8 1.5-1.4.9-1.4-.5 0-1.9.6-2.9 1.4zM159.3 642.7c-.7.2-1.3.9-1.3 1.5 0 1.2 4.1.6 4.1-.7.1-1.2-1.1-1.5-2.8-.8zM192 645c0 .5.7 1 1.6 1 .8 0 1.2-.5.9-1-.3-.6-1-1-1.6-1-.5 0-.9.4-.9 1zM231.5 645c-.3.5-.1 1 .4 1 .6 0 1.1-.5 1.1-1 0-.6-.2-1-.4-1-.3 0-.8.4-1.1 1zM184 646.5c0 .8.9 1.5 2 1.5s2-.2 2-.5c0-.2-.9-.9-2-1.5-1.6-.9-2-.8-2 .5zM147.8 650.7c.7.3 1.6.2 1.9-.1.4-.3-.2-.6-1.3-.5-1.1 0-1.4.3-.6.6zM305 651.6c-1.4.7-2.9 1.5-3.5 1.8-.6.2-.5.9.3 1.7.9 1 1.5 1.1 2 .3.4-.6 2.2-1.9 4-2.8 1.7-.9 3.2-1.9 3.2-2.1 0-.9-3.5-.3-6 1.1zM384 651c0 .5.5 1 1.1 1 .5 0 .7-.5.4-1-.3-.6-.8-1-1.1-1-.2 0-.4.4-.4 1zM390.5 651c-.3.5-.1 1 .4 1 .6 0 1.1-.5 1.1-1 0-.6-.2-1-.4-1-.3 0-.8.4-1.1 1zM233.8 660.7c-1 .2-1.8.8-1.8 1.3s-.8 1.1-1.7 1.3c-1.3.3-1.4.5-.3.6.8 0 2.6-.8 4-1.9 1.4-1.1 2.3-1.9 2-1.9-.3.1-1.3.3-2.2.6zM357 667.3c0 .8.7 1.4 1.5 1.4s1.5-.6 1.5-1.4c0-.7-.7-1.3-1.5-1.3s-1.5.6-1.5 1.3zM229 669.5c-1.9 1.4-3 2.5-2.5 2.5 1.9 0 9.5-3.3 9.5-4.1 0-1.7-3.7-.9-7 1.6zM208 674c-1.2 1.2-1.8 2.5-1.4 3.1.6 1 1.6.4 5.8-3.4 2-1.7 1.9-1.7-.2-1.7-1.2 0-3.1.9-4.2 2z"/><path d="M213.4 676.4c-.7 1.7-7.5 4.6-10.9 4.6-1.4 0-2.5.3-2.5.7 0 1.8-5.4 3.1-10.3 2.6-4.6-.4-5.4-.2-6.5 1.8-1.3 2-1.2 2.1.5 1.4 1-.4 4.7-.9 8.3-1.2 3.6-.3 7.9-1.1 9.7-1.9 1.7-.8 3.6-1.4 4.1-1.4.5 0 3.9-1.4 7.3-3.2 5.4-2.6 6.1-3.2 4.4-3.9-2.9-1.1-3.5-1.1-4.1.5z"/><path d="M201.7 677.7c-1.2 1.1-.8 2.3.8 2.3.8 0 1.5-.7 1.5-1.5 0-1.6-1.2-2-2.3-.8zM195.3 679.9c-3.4 1.7-4.3 3.1-2 3.1s6.7-2.5 6.7-3.8c0-1.5-.6-1.4-4.7.7zM298.2 681.2c-1.6 1.6-1.5 2.8.3 2.8.8 0 1.5-.9 1.5-2 0-2.3-.2-2.4-1.8-.8zM1042.6 684.5c-3.2.7-6.2 1.8-6.5 2.4-.4.6-4.6 1.3-9.7 1.5-7 .3-10 1-13.9 3-5.8 2.8-12.3 4.5-17.7 4.6-3.2 0-3.6.3-3.4 2.2.2 1.3.7 3.1 1.1 4.1.4 1 .5 3.1.2 4.7-.6 2.5-.3 2.9 2.1 3.4 1.5.2 3.6.4 4.7.4 2.3-.1 6.5-3.6 6.5-5.5 0-.7.5-1.3 1-1.3.6 0 1-.6 1-1.3 0-1.8 3.2-4.7 5.1-4.7 2.7 0 8.9-2.1 10.3-3.5 1.9-2 19.9-6.7 20.6-5.5.4.6 4.6 2.2 9.6 3.6 4.9 1.5 9.1 3 9.4 3.3.3.3 1.2.8 2 1 .8.2 2.7.7 4.3 1.1 2 .7 2.7.5 2.7-.6 0-.8-.7-1.4-1.5-1.4-.9 0-1.8-1.2-2.1-2.9-.6-2.8-1-3-8.3-4.3-6.6-1.2-7.6-1.7-7.9-3.6-.4-2.5-1.1-2.6-9.6-.7zM277.5 692.1c-.4.6-.4 1.3-.1 1.6.8.8 3.6-.5 3.6-1.7 0-1.3-2.7-1.3-3.5.1zM837.8 693.5c-.2.3-1.8.6-3.4.8-1.7.2-3.6.7-4.3 1.1-2.1 1.3-11.3 1.7-12.7.5-1-.8-1.8-.1-3.3 3-2.4 4.7-2.5 6.2-.9 10.8 1.1 3 1.6 3.3 5.4 3.3 2.7 0 5.3-.8 7.7-2.4 1.9-1.3 4.6-2.7 5.8-3.1 1.3-.4 5.2-2 8.6-3.6 3.4-1.6 7.2-2.9 8.5-2.9 1.3 0 3-.5 3.8-1 1.2-.9.9-1.5-2-4-2.7-2.3-4.5-3-8.1-3-2.5 0-4.8.2-5.1.5zM890.6 696.6c-1.4 1.5-2.6 3.2-2.6 3.8 0 1.1-5.9 5.4-9.2 6.8-.9.4-4.3 1-7.5 1.4-8.4.9-9 1.6-3.8 4.4 3.7 2 4.5 3 4.5 5.2 0 2.8.1 2.8 6.6 2.8 6.9 0 9.4.9 12.8 4.4 1.2 1.2 3.4 2.7 4.9 3.4 1.5.7 3.6 2.5 4.5 4.2.9 1.7 3.1 3.5 4.8 4 3.8 1.3 4.8 4.6 3.1 10.4-.9 3.1-.8 4.1.1 4.4.7.2 1.2 1.7 1.2 3.4 0 3 0 3.1 4.3 2.5 3.1-.4 5.4-1.6 8.2-4.2 3.6-3.5 3.7-3.8 2.7-7.1-.9-3-.8-3.6.9-4.4 1-.6 1.9-1.9 1.9-2.9 0-1.9-3-5.1-4.8-5.1-1.8 0-4.4-3.1-3.8-4.6.5-1.4-.4-1.8-3.5-1.5-1.6.2-12.9-4.4-12.9-5.2 0-.2 1.1-1.7 2.5-3.3 3.2-3.7 3.5-10.8.6-12.3-1-.6-2.1-.8-2.3-.5-.3.2-.4-1.2-.2-3.3.6-8-7.5-12.2-13-6.7zM271.1 695.9c-1.9 1.2-.5 3.1 2.2 3.1 2.1-.1 2.1-.1.4-1.4-1.8-1.4-1.8-1.4 0-1.9 1.2-.3 1.3-.5.3-.6-.8 0-2.1.3-2.9.8zM261.4 699.5c-1.1.8-2.7 1.5-3.6 1.5-1 0-1.8.7-1.8 1.5 0 .9-.9 1.5-2.2 1.5-1.9 0-2 .2-.8 1 2 1.3 6.7 1.3 7.5 0 .3-.6 2.1-1 4-1 2.8 0 3.2-.3 2.8-2-.8-3-3.6-4.2-5.9-2.5zM280 699.8c0 .7-.7 1.2-1.6 1.2-.8 0-1.2.4-.9 1 .3.5 1 1 1.5 1 1 0 2.2-3.1 1.5-3.8-.3-.3-.5 0-.5.6zM247.7 700.6c-.3.3-2.3 1.2-4.4 1.9l-3.8 1.4 3.8.1c4.3 0 8.1-1.6 7.2-3.1-.7-1-1.9-1.2-2.8-.3zM620.8 703.9c-1.3 1.1-3.7 2.3-5.1 2.6-5.7 1.5-1.6 3.7 4.8 2.6 4.1-.7 6.2-2.9 5.2-5.5-.8-2.1-1.9-2-4.9.3zM180.8 704.7c.6.2 1.8.2 2.5 0 .6-.3.1-.5-1.3-.5-1.4 0-1.9.2-1.2.5zM165.9 706.8c-3.6 1-7.7 2.5-9.2 3.4-1.4 1-3.3 1.8-4.2 1.8-.8 0-3.4.8-5.8 1.9-2.3 1-6.1 2.4-8.4 3-5.3 1.5-10.5 4.1-8 4.1 1 0 3.4-.7 5.4-1.5 1.9-.8 4.6-1.5 5.9-1.5 1.3 0 2.4-.5 2.4-1.1 0-.6 1.1-.8 2.8-.5 4.9 1.1 16.9-1.1 23.4-4.2 5.9-2.9 6.1-3 3.1-3.1-1.8-.1-3.3-.5-3.3-1 0-.4 1.5-1.3 3.3-1.9 5.2-1.6-.1-1.2-7.4.6zM259.5 709c-.4.6.5 1 1.9 1s2.6-.5 2.6-1c0-.6-.9-1-1.9-1-1.1 0-2.3.4-2.6 1zM230 710.9c0 .4-3.7 1.9-8.2 3.2-8.4 2.3-12.4 4-12.3 4.9 0 .3-1.9 2.3-4.2 4.4-2.4 2.1-4.3 4.2-4.3 4.6 0 .4 2.7 1 6 1.4 3.3.4 5.8 1.1 5.5 1.6-.3.5.4 1.1 1.5 1.5 1.1.3 2 1.3 2 2.1s.5 1.4 1 1.4c.6 0 1-2.4 1-5.4 0-5.1-.1-5.4-2.2-4.8-2.1.5-2.2.4-.9-1.2 1-1.2 1.7-1.4 2.5-.6 1.1 1.1 4.6 1.4 4.6.3 0-.3-.7-1.5-1.7-2.5-1.5-1.7-1.5-1.8.6-1.8 1.2 0 2.4-.7 2.7-1.5.4-.8 1.2-1.5 1.8-1.5 2.2 0 6.6-2.5 6.6-3.8 0-.7 1.4-1.2 3.3-1.3 2.7 0 2.9-.2 1.2-.9-2.6-1.1-6.5-1.2-6.5-.1zM253 711c-1.2.8-1.1 1 .8 1 1.2 0 2.2-.5 2.2-1 0-1.3-1.1-1.3-3 0zM806.5 714.1c-.4.6-.3 1.5.3 2.1.6.6 1.1.4 1.5-.6.7-1.8-.9-3.1-1.8-1.5zM80 723c0 .5.5 1 1 1 .6 0 1-.5 1-1 0-.6-.4-1-1-1-.5 0-1 .4-1 1z"/><path d="M870.8 723.1c-2.2 1.2-2.3 2.9-.4 2.9.8 0 1.6.4 1.8 1 .2.6 1.4.6 3.3.1l3-.9-2.5-.9c-1.4-.6-2.4-1.4-2.2-1.9.5-1.3-1.1-1.5-3-.3zM69.7 723.6c-.8.8.1 2.4 1.4 2.4.5 0 .9-.7.9-1.5 0-1.5-1.2-2-2.3-.9zM170 726.6c0 2.2.2 2.5 1.5 1.4.8-.7 1.5-1.9 1.5-2.6 0-.8-.7-1.4-1.5-1.4-1 0-1.5 1-1.5 2.6zM64 728.5c0 .8-.6 1.5-1.3 1.5-.7 0-2.2.7-3.3 1.5-1.9 1.4-1.8 1.4.4 1.5 1.2 0 3.1-.9 4.2-2 2.2-2.2 2.6-4 1-4-.5 0-1 .7-1 1.5zM200 734c0 1.7.3 1.8 2.5.8 2.7-1.2 2.4-2.8-.6-2.8-1.2 0-1.9.7-1.9 2zM190 734.5c-1 1.2-1 1.5.4 1.5.9 0 1.6-.7 1.6-1.5s-.2-1.5-.4-1.5-.9.7-1.6 1.5zM52 736c0 .5.5 1 1 1 .6 0 1-.5 1-1 0-.6-.4-1-1-1-.5 0-1 .4-1 1zM67.8 735.7c.7.3 1.6.2 1.9-.1.4-.3-.2-.6-1.3-.5-1.1 0-1.4.3-.6.6zM453.3 735.8c-1.2.2-2.7 1-3.3 1.8-1.1 1.2-.7 1.4 2.3 1.4 3.6 0 7-2.4 4.5-3.2-.7-.2-2.3-.2-3.5 0zM66.5 738c.3.5 1.1 1 1.6 1 .6 0 .7-.5.4-1-.3-.6-1.1-1-1.6-1-.6 0-.7.4-.4 1zM168.1 738.6c0 1.1.3 1.4.6.6.3-.7.2-1.6-.1-1.9-.3-.4-.6.2-.5 1.3zM48 739c0 .5.5 1 1.1 1 .5 0 .7-.5.4-1-.3-.6-.8-1-1.1-1-.2 0-.4.4-.4 1zM75 740.1c-2.6 1.5-2.9 1.8-1 1.3 2.7-.7 7.1-3.4 5.5-3.4-.6.1-2.6 1-4.5 2.1zM203 740c0 .5.5 1 1 1 .6 0 1-.5 1-1 0-.6-.4-1-1-1-.5 0-1 .4-1 1zM63.6 742.6c-1.7 1.2-1.7 1.4-.4 1.4.9 0 2-.5 2.3-1.1 1.1-1.7.2-1.8-1.9-.3zM174 745c0 .5.5 1 1 1 .6 0 1-.5 1-1 0-.6-.4-1-1-1-.5 0-1 .4-1 1zM713.3 744.7c.9.2 2.3.2 3 0 .6-.3-.1-.5-1.8-.5-1.6 0-2.2.2-1.2.5zM486 746.8c-.8.2-2.9 1.1-4.7 1.9-1.8.8-3.7 1.2-4.2.8-.6-.3-2.9-.8-5.1-1.1-3.5-.4-4.4-.1-7.5 3-2 2-4.7 3.9-6 4.2-1.4.3-2.5 1-2.5 1.5s-1.9 1.2-4.2 1.6c-3.4.5-3.8.8-2.3 1.4 1.5.6 1 .8-1.8.8-4.7.1-4.6 2.1.3 3.4 2 .5 2.9 1.2 2.3 1.8-.5.5-2.2.5-4.3-.1-1.9-.6-6.6-1-10.4-1-5.8 0-6.7.2-5.7 1.4 1 1.1.9 1.6-.3 2.3-.9.5-1.7 1.9-1.8 3.2-.2 2 .3 2.6 3 3.3 1.7.5 3.2 1.3 3.2 1.8s4.6.9 10.3.9c5.6 0 11.7.4 13.5 1 2.7.8 3.4.7 3.9-.6.4-.9-.1-1.9-1-2.5-2.6-1.4-2-3.3 1.8-5.4 1.9-1 3.5-2.2 3.5-2.6 0-.5 2-.8 4.4-.8 2.5 0 4.8-.5 5.1-1 .4-.6-.5-1-1.9-1s-2.6-.4-2.6-.9c0-.9 7.2-2.1 12.8-2.1 5.7 0 9.6-6.1 4.4-6.8-3-.5-2.8-3 .3-4.2 1.4-.5 2.5-1.4 2.5-1.9 0-1.4-3.2-2.9-5-2.3zm-8.3 5.8c-.3.3-1.2.4-1.9.1-.8-.3-.5-.6.6-.6 1.1-.1 1.7.2 1.3.5zM728 746.8c0 1 6.2 3.1 10 3.5 1.9.1 2.6-.3 2.8-2.1.3-2.1 0-2.2-6.2-2.2-3.6 0-6.6.4-6.6.8zM157.2 750.1c-3.4 1.3-2.6 1.9 2.4 1.9 2.5 0 4.3-.4 4-.9-.9-1.4-4-1.9-6.4-1zM46.6 750.8c-.2.4-.1 1.4.5 2.2.7 1.2.9 1 .9-.8 0-2.3-.5-2.8-1.4-1.4zM433 755.3c-.8.7-1.5 1.9-1.6 2.8-.1 1.3.7 1.4 5.4.8 6-.8 9.5-2.9 5-2.9-1.5 0-3-.5-3.3-1-.8-1.4-3.7-1.2-5.5.3zM38.8 755.7c-1 .2-1.8.9-1.8 1.4 0 .5-1.1.9-2.5.9-1.6 0-2.5.6-2.5 1.5 0 1.8-.1 1.8 4.1.3 3.8-1.3 8.2-4.9 5.8-4.7-.8.1-2.2.3-3.1.6zM417 759c0 .5.7 1 1.6 1 .8 0 1.2-.5.9-1-.3-.6-1-1-1.6-1-.5 0-.9.4-.9 1zM978.5 760c-.4.6 1.4 1 4.7 1 3.8 0 4.9-.3 3.8-1-2-1.3-7.7-1.3-8.5 0zM53.9 764c-2.4 1.9-2.4 1.9-.3 2 1.2 0 3.2-.9 4.5-2 2.4-1.9 2.4-1.9.3-2-1.2 0-3.2.9-4.5 2zM126.5 764c.3.5.8 1 1.1 1 .2 0 .4-.5.4-1 0-.6-.5-1-1.1-1-.5 0-.7.4-.4 1zM117 767.2c-2.2 1.8-2.2 1.9-.5 3.8 2.4 2.7 3.5 2.5 3.5-.5 0-1.9.5-2.5 2.1-2.5 1.1 0 1.8-.4 1.5-.9-1.1-1.8-4.3-1.8-6.6.1zM72 766.9c0 .5-1.6 1.6-3.6 2.6-3.5 1.7-4.1 3.7-1.2 4.3.9.2 1.9-.6 2.3-1.7.3-1.1 2.1-2.6 4-3.2 1.9-.7 3.2-1.6 2.9-2.1-.7-1.1-4.4-1-4.4.1zM58.1 767.9c-1.4.4-2.6 1.2-2.9 1.9-.2.8.2 1 1.5.5 1.7-.6 1.7-.6.1 1.4-2 2.2-2.4 3.8-.8 2.8.6-.4 1.7-.1 2.5.5 1.4 1.2 5.5.5 5.5-.9 0-.4-1.1-1.4-2.5-2.1-2.7-1.4-2.4-2.7.9-4 2-.8 2-.9.1-.8-1.1 0-3.1.3-4.4.7zM128.3 772c0 2.5.2 3.5.4 2.2.2-1.2.2-3.2 0-4.5-.2-1.2-.4-.2-.4 2.3zM514.5 770c.4.6 1.1.8 1.6.5 1.4-.9 1.1-1.5-.7-1.5-.8 0-1.2.5-.9 1zM24 773c0 .5.5 1 1.1 1 .5 0 .7-.5.4-1-.3-.6-.8-1-1.1-1-.2 0-.4.4-.4 1zM16.8 776.7c.7.3 1.6.2 1.9-.1.4-.3-.2-.6-1.3-.5-1.1 0-1.4.3-.6.6zM536 776.9c0 .5 2 .6 4.5.4 3.9-.5 5.1-.1 10.1 3.2 4.4 2.9 5.8 3.5 6.5 2.4 1.2-2-.6-3.5-6.1-5.3-5.2-1.7-15-2.2-15-.7zM986.8 776.7c.6.2 1.8.2 2.5 0 .6-.3.1-.5-1.3-.5-1.4 0-1.9.2-1.2.5zM97.7 779c-1.1 1.5-1.6 1.8-1.9.8-.4-1-1-.9-2.5.4-1.1 1-2.7 1.8-3.6 1.8-.9 0-1.7.7-1.7 1.5 0 1.1 1.1 1.5 4.1 1.5 2.4 0 3.8-.4 3.4-1-.3-.6.1-.7.9-.4.9.3 1.6.2 1.6-.4 0-.5.9-1.2 2.1-1.5 1.3-.4 1.9-1.2 1.7-2.3-.5-2.6-2.4-2.8-4.1-.4zM105.8 778.7c1.2.2 3.2.2 4.5 0 1.2-.2.2-.4-2.3-.4s-3.5.2-2.2.4zM70 782.5c-1 1.2-1 1.5.4 1.5.9 0 1.6-.7 1.6-1.5s-.2-1.5-.4-1.5-.9.7-1.6 1.5zM954 783.2c-3 .3-7.9.6-10.7.7-4 .1-5.3.5-5.3 1.6 0 .8.8 1.5 1.8 1.5.9 0 3.3 1 5.2 2.2 8.6 5.4 10 5.5 12.4 1 1.2-2.3 1.9-2.6 5.7-2.3 2.4.1 4.7.8 5 1.3.4.6 1.8.8 3.3.4 2.7-.7 7-4.6 6-5.5-.9-1-17.5-1.6-23.4-.9zM22.8 783.7c.6.2 1.8.2 2.5 0 .6-.3.1-.5-1.3-.5-1.4 0-1.9.2-1.2.5zM433.7 784.6c-.3.4-2.1.7-3.9.8-2.6.1-3.4.6-3.6 2.4-.4 2.9 2.2 3.8 5.3 1.8 1.3-.9 3.8-1.6 5.5-1.6 3.4 0 3.9-1.4 1.1-3-2.2-1.1-3.5-1.3-4.4-.4zM102 787c0 .5.5 1 1 1 .6 0 1-.5 1-1 0-.6-.4-1-1-1-.5 0-1 .4-1 1zM488.9 787.6c-1.2 1.5-.9 2.1 2.6 5.1 3.8 3.3 4 3.3 4.3 1.3.2-1.1-.2-2.8-1-3.7-1-1.3-1-1.7 0-2 2.3-.8 1.2-2.3-1.7-2.3-1.6 0-3.5.7-4.2 1.6zM865.7 786.6c-1 1.1.3 2.4 2.3 2.4 1 0 3.2.8 4.8 1.7 2.9 1.7 3.1 1.7 5.1-.1 3.9-3.5 2.7-4.6-4.7-4.6-3.8 0-7.2.3-7.5.6zM455 807.5c-3.4 1.3-3.3 1.5 1 2.8 1 .3.5.9-1.5 1.8-2.8 1.2-2.8 1.3-.8 1.6 1.2.3 3.1-.1 4.2-.6 1.1-.6 3.1-1.1 4.5-1.1 4.3 0 4.2-2.6-.1-4.9-2.5-1.3-2.7-1.3-7.3.4zM604.4 807.9c-2.2 1-7.8 2.2-12.3 2.6-5.8.5-8.4 1.2-8.8 2.2-.3.8-1.5 1.9-2.7 2.3-1.5.6-.6.9 3.6.9 3.4.1 5.8-.4 6-1 .2-.7 3.3-1.6 6.8-2 3.5-.5 6.8-1.3 7.4-1.8.6-.5 3-1.5 5.4-2.2 2.3-.6 4.2-1.6 4.2-2.1 0-1.4-5.3-.8-9.6 1.1zM534.8 815.9c.7.4 1.2 1.2 1.1 1.7-.4 2.5.4 3.5 4.1 5.1 2.2 1 4 2.3 4 2.9 0 .7.7 1.5 1.6 1.8 2.5.9 6.4.7 6.4-.4 0-.6.6-1 1.4-1 1.4 0 4.6-4.1 4.6-5.9 0-1.4-3.4-2.3-10.5-2.6-3.4-.1-7.1-.8-8.3-1.4-2.5-1.3-6.5-1.5-4.4-.2zM571 816c-1.2.8-.9 1 1.2 1 1.5 0 3-.5 3.3-1 .8-1.3-2.5-1.3-4.5 0zM355.5 818c-.3.5-.1 1 .4 1 .6 0 1.1-.5 1.1-1 0-.6-.2-1-.4-1-.3 0-.8.4-1.1 1zM537.5 828c-.3.6.5 1 1.9 1s2.8-.5 3.1-1c.3-.6-.5-1-1.9-1s-2.8.4-3.1 1zM534 829c0 .6-2.9 1-6.7 1-3.8 0-7.5.5-8.3 1.1-1.3.9-1.3 1 0 .7 1.6-.3 2 .7 1.2 3.5-.4 1.7-1.5 1.8-11.7 1.6-9.3-.3-11.5 0-12.9 1.3-.9.9-1.6 2.2-1.6 2.9 0 1.8 4 4.9 6.4 5 1.2 0 3.2.2 4.6.4 8.2 1.3 10 1.4 10 .5 0-.5 1.1-1.2 2.5-1.6 1.4-.3 2.5-1 2.5-1.6 0-1.2 5.2-5.7 6.8-5.8.6 0 1.2-.4 1.2-.8 0-.5 1.8-1.7 4-2.7 4.7-2.1 5.2-2.7 4.4-4.9-.7-1.8-2.4-2.2-2.4-.6zM465.6 831.6c-3.5 3.5.2 7.6 4.2 4.8 2.7-1.8 2.8-3.2.5-5-2.3-1.7-2.8-1.7-4.7.2zM501.5 833c.3.5 1.2 1 2 1s1.7-.5 2-1c.4-.6-.5-1-2-1s-2.4.4-2 1zM683.2 833.6c.4 2.1 2.2 2.3 2.6.1.2-1-.3-1.7-1.3-1.7s-1.5.6-1.3 1.6zM408 838.5c0 .8.5 1.5 1.1 1.5.5 0 .7.5.3 1.1-.5.8-.9.8-1.4-.1-.5-.9-1.1-.6-2.2.8-.7 1.1-2.6 2.4-4 2.7-1.9.5-2.4 1.2-2.1 2.5.6 2.4 3.5 3.1 10.7 2.3l6-.6-5-1.5c-2.7-.7-5.1-1.6-5.3-1.8-.7-.7 3.3-3.3 5.2-3.4 1.7 0 2.5-2 .7-2-.5 0-.7-.7-.4-1.5.4-1 0-1.5-1.5-1.5-1.2 0-2.1.6-2.1 1.5zM450.8 839.7c.6.2 1.8.2 2.5 0 .6-.3.1-.5-1.3-.5-1.4 0-1.9.2-1.2.5zM445.5 844c.3.5-.7 1.3-2.2 1.6-1.6.4-2.8.3-3.1-.4-.3-1.1-7.3-.5-8.2.8-1 1.4-7.4 4-9.7 4-2 0-2.3.4-2.1 3.2.3 2.9-.1 3.5-3.4 5.1-4.2 2.1-4.5 2.8-2.2 5.1 1.4 1.5 1.4 1.6 0 1.6-.9 0-1.6.7-1.6 1.5 0 1.8.4 1.8 4.6.3 2.8-1 3.6-.9 5.1.4 2.9 2.5 4.9 2.7 7.5 1 2.9-2 2.6-4.2-.6-4.2-1.5 0-2.7-.9-3.4-2.5-1.5-3.2-1.5-3.5 0-3.5.6 0 2-.7 3-1.7 1.4-1.2 3.4-1.6 8.1-1.4 7.7.3 10.2-1.4 11.1-7.7.6-3.8.4-4.2-1.4-4.2-1.2 0-1.8.4-1.5 1zM827.1 847.4c-.9 1-.9 1.6-.1 2.1 1.7 1 3.7-1.2 2.4-2.5-.8-.8-1.5-.6-2.3.4zM1019.6 851.7c-.3.4-.6 1.5-.6 2.5 0 1.3.7 1.8 2.5 1.8 1.4 0 2.5-.6 2.5-1.3 0-1.4-3.5-3.9-4.4-3zM398.2 855.3c-2.5 1.1-2.9 3.5-.8 4.3 1.7.7 7.9-2.4 7.1-3.5-.8-1.5-3.9-1.8-6.3-.8zM484.8 856.7c.6.2 1.8.2 2.5 0 .6-.3.1-.5-1.3-.5-1.4 0-1.9.2-1.2.5zM799.5 857.8c-2.7.7-3 1-2.7 4.2.4 3.4 3 7 5.1 7 2.3 0 3.3 5.5 1.8 9.4-.8 2.1-3.7 2.1-3.7 0 0-1.3-.3-1.4-1.4-.4-.8.6-1.2 1.8-.9 2.6.3 1-.4 1.6-2.6 2-3.7.8-4 2.7-.8 4.1 2 1 2.9.7 5.5-1.6 1.8-1.5 3.2-3.2 3.2-3.9 0-1.6 1.5-1.5 3 .2.6.8 1.7 1.3 2.4 1 1.7-.7 6.4 3.3 5.1 4.3-1.1.9-1.6 3.2-1.9 8.3-.1 2.9.2 3.5 1.9 3.3 1.1-.1 4 .3 6.4.8 3.6.8 5 .6 8.5-1.1 2.3-1.1 4.5-2 4.9-2 .4 0 1.6-.9 2.8-2.1 1.6-1.6 2.8-2 5.2-1.5 6.8 1.4 8 1.2 9.8-1.9 2.4-4.1 3.5-10.5 1.8-10.5-.7 0-2.1-.7-3.1-1.7-1.7-1.5-1.8-1.5-1.8.1 0 1.4-.4 1.4-3-.6-3.8-2.7-3.8-3.7 0-4.4 1.6-.4 2.8-1.1 2.7-1.8-.1-.6.7-1.1 1.8-1.1s3.6-.9 5.5-1.9l3.5-1.9-2.9-.8c-1.9-.5-3.5-.3-5.1.7-1.5.9-2.4 1.1-2.7.4-.4-1.4-6.3.3-8.4 2.5-.9.9-2.6 1.5-3.8 1.3-1.6-.2-2-.9-1.8-3.1.1-1.5-.2-2.7-.8-2.7-.5 0-1-.6-1-1.4 0-.8-.5-1.8-1.2-2.2-1.8-1.1-8.8-2.6-13.8-2.9-2.5-.1-6.7-.5-9.5-.8-2.7-.3-6.3-.2-8 .1zm26.5 15.8c0 1.1-.8 1.4-2.7 1.2-3.9-.4-4.2-2.8-.4-2.8 2.1 0 3.1.5 3.1 1.6zm14-.6c0 1.1-1.4 1.1-5 0-2.2-.7-2.1-.8 1.3-.9 2-.1 3.7.3 3.7.9zM474 858.8c0 1.7 3.7 4.2 6.1 4.2 1.7 0 2 .3 1.1.9-.7.4-3.5.6-6.3.3-3.4-.3-4.9-.1-4.9.7 0 .8.8 1 2 .6 1.3-.4 2.5.1 3.7 1.4 1 1.2 2.3 2.1 2.9 2.1.7 0 1.4.7 1.8 1.5.8 2.2 3.4 1.8 4.7-.7 1.6-3 3.5-4.8 5.1-4.8 1 0 .9-.3-.2-1-.9-.5-1.9-.5-2.7.1-.6.6-2 .9-3 .6-1.4-.4-1.4-.5.4-.6 3.1-.1 3.8-1.9 1.7-4.2-1.3-1.4-3-1.9-7.1-1.9-2.9 0-5.3.4-5.3.8zM564.8 859.7c.7.3 1.6.2 1.9-.1.4-.3-.2-.6-1.3-.5-1.1 0-1.4.3-.6.6zM539.9 865.6c-2.3 2.8 3.1 5.5 7.5 3.8 2.4-.9 1.9-2.9-.9-4.2-3.5-1.6-5-1.5-6.6.4zM515.3 866.6c-4.4 2.2-4.2 3.6.5 2.8 4.7-.8 6.9-2.4 5-3.5-1.7-1.1-1.8-1.1-5.5.7zM875.3 869.6c-1.9 1.9-2.8 2.2-3.3 1.4-.6-1-1.4-.7-3 .8-3.6 3.3-1.7 4.3 6.8 3.7 7.3-.6 12.2-2 12.2-3.5 0-.7-8.2-5-9.4-5-.4 0-1.9 1.2-3.3 2.6z"/><path d="M856 874.2c0 1.6.5 2.8 1 2.8 1.3 0 1.3-2 0-4-.8-1.2-1-.9-1 1.2zM861 874c-1.2.8-.9 1 1.3 1 1.6 0 2.6-.4 2.2-1-.8-1.2-1.6-1.2-3.5 0zM631.8 876.7c-2.5.6-2.2 1.8 1 3.9 3.3 2.3 15.5 5.5 16.3 4.3.3-.5.3-2.4.1-4.3-.4-3.2-.6-3.4-5.5-4-5.7-.6-9.2-.6-11.9.1zM499.6 878.9c-1.9 3 2.8 6.1 9 6.1 1.9 0 3.4.4 3.4 1 0 1.3 5 1.3 7 0 1.2-.7.8-1.2-1.8-2.1-1.9-.6-5.5-2.2-8-3.5-4.9-2.5-8.7-3.1-9.6-1.5zM785.5 885c-1.9.8-1.9.9.3.9 1.2.1 2.2-.4 2.2-.9 0-.6-.1-1-.2-.9-.2 0-1.2.4-2.3.9zM484 898.6c0 .4 1 1.6 2.3 2.8 1.9 1.8 2.7 1.9 4.5 1l2.3-1.1-2.5-1.7c-2.5-1.6-6.6-2.2-6.6-1zM482.5 904c.3.5 1 1 1.6 1 .5 0 .9-.5.9-1 0-.6-.7-1-1.6-1-.8 0-1.2.4-.9 1zM824 915c0 .5.5 1 1 1 .6 0 1-.5 1-1 0-.6-.4-1-1-1-.5 0-1 .4-1 1zM623 920c-1 .6-1.1 1-.2 1 .6 0 1.2.7 1.2 1.6 0 1.1.9 1.4 3.7 1.2 4.7-.4 5.3-2.3 1.2-3.7-3.8-1.3-4-1.3-5.9-.1zM512 931c0 .5.5 1 1.1 1 .5 0 .7-.5.4-1-.3-.6-.8-1-1.1-1-.2 0-.4.4-.4 1zM477.8 937.2c-3.4 1.2-3.8 3.4-.5 2.3 1.2-.4 3.2-.6 4.5-.6 1.5.1 2.2-.4 1.9-1.2-.5-1.6-2.6-1.8-5.9-.5zM593.5 938c-.4.6.8 1 2.9 1 2 0 3.6-.5 3.6-1 0-.6-1.3-1-2.9-1-1.7 0-3.3.4-3.6 1zM520.8 938.7c.6.2 1.8.2 2.5 0 .6-.3.1-.5-1.3-.5-1.4 0-1.9.2-1.2.5zM846.2 939.2c-.5.7-1.7 2.7-2.6 4.5-.9 1.9-2.5 3.3-3.8 3.5-1.6.2-2.4 1.1-2.6 2.8-.2 1.3-1.3 3.1-2.3 3.8-1.1.7-1.7 1.8-1.4 2.3 1.1 1.6 3.5.9 4.4-1.3.6-1.6 1.8-2.2 5.2-2.5 2.4-.3 4.6-.9 4.7-1.4.2-.5 1.2-.9 2.3-.9 1 0 1.9-.6 1.9-1.3 0-.7.9-2.3 2-3.4l2-2.2-3.1-2.5c-3.4-2.9-5.2-3.2-6.7-1.4zM521 941.4c0 .9 3.9 1.3 5.1.5 1-.6.4-.9-1.8-.9-1.8 0-3.3.2-3.3.4zM508 947.5c-.7.8-3 2-5.1 2.5-2.2.6-3.9 1.7-3.9 2.5 0 2.2-2.2 2.3-6.1.3-4.6-2.4-8.1-1.2-10 3.4-1.4 3.4-3.2 5.8-4.5 5.8-.4 0-1.9 1.2-3.4 2.7-2.7 2.7-2.7 2.7-.7 4.4 2 1.6 5.7 1.5 5.7-.2 0-.5.9-.9 1.9-.9 1.1 0 2.2-.4 2.6-.9.3-.5 1.9-1.2 3.5-1.6 1.7-.4 3-1.1 3-1.6s1.1-1.5 2.5-2.1c1.4-.6 2.5-1.6 2.5-2.2 0-2 3.8-4.5 5.9-3.9 1.2.3 2.1.1 2.1-.6 0-.6.9-1.1 1.9-1.1 1.1 0 2.3-.5 2.6-1 .3-.6 1.7-1 2.9-1 1.4 0 3-1 3.9-2.4 1.5-2.2 1.5-2.5.1-3-2.7-1.1-6.1-.6-7.4.9zM517.5 964.9c-.3.6.1 1.1.9 1.1.9 0 1.6.5 1.6 1.1 0 1.1-2.8.9-6.2-.6-1-.4-1.8-.3-1.8.3 0 .5 1.6 1.3 3.6 1.7 2.3.4 3.8 1.3 4.1 2.5.3 1.1 1.1 1.6 1.9 1.3 1.9-.7 1.8-2.3-.1-2.3-.8 0-1.5-.5-1.5-1 0-.6.9-1 2.1-1 3.1 0 2-3.4-1.3-3.8-1.4-.2-2.9.2-3.3.7zM592 977c0 .5.4 1 .9 1 .6 0 1.3-.5 1.6-1 .3-.6-.1-1-.9-1-.9 0-1.6.4-1.6 1zM584 980c0 .5.4 1 .9 1 .6 0 1.3-.5 1.6-1 .3-.6-.1-1-.9-1-.9 0-1.6.4-1.6 1z"/></svg>